<svg width="726" height="363" viewBox="0 0 726 363" fill="none" xmlns="http://www.w3.org/2000/svg">
    <g opacity="0.15" clip-path="url(#clip0_120_925)">
    <path opacity="0.3276" d="M302.421 240.973L304 239.387L301.841 238.807L302.421 240.973Z" fill="#00AEEF"/>
    <path opacity="0.3392" d="M307.528 260.035L309.113 258.45L306.947 257.869L307.528 260.035Z" fill="#00AEEF"/>
    <path opacity="0.8377" d="M311.145 246.533L309.56 248.118L311.726 248.699L311.145 246.533Z" fill="#00AEEF"/>
    <path opacity="0.2134" d="M321.485 246.084L323.064 244.499L320.904 243.918L321.485 246.084Z" fill="#00AEEF"/>
    <path opacity="0.7161" d="M312.634 279.1L314.219 277.514L312.059 276.934L312.634 279.1Z" fill="#00AEEF"/>
    <path opacity="0.2951" d="M316.252 265.596L314.673 267.181L316.832 267.762L316.252 265.596Z" fill="#00AEEF"/>
    <path opacity="0.8261" d="M326.591 265.148L328.176 263.563L326.01 262.982L326.591 265.148Z" fill="#00AEEF"/>
    <path opacity="0.2174" d="M330.209 251.639L328.624 253.224L330.79 253.805L330.209 251.639Z" fill="#00AEEF"/>
    <path opacity="0.9067" d="M339.968 249.025L340.542 251.191L342.128 249.606L339.968 249.025Z" fill="#00AEEF"/>
    <path opacity="0.6215" d="M344.166 237.688L342.581 239.273L344.741 239.847L344.166 237.688Z" fill="#00AEEF"/>
    <path opacity="0.558" d="M319.331 296.579L317.165 295.998L317.746 298.164L319.331 296.579Z" fill="#00AEEF"/>
    <path opacity="0.1588" d="M321.364 284.66L319.779 286.245L321.945 286.826L321.364 284.66Z" fill="#00AEEF"/>
    <path opacity="0.2375" d="M333.282 282.628L331.117 282.047L331.697 284.213L333.282 282.628Z" fill="#00AEEF"/>
    <path opacity="0.3652" d="M335.315 270.703L333.73 272.288L335.896 272.869L335.315 270.703Z" fill="#00AEEF"/>
    <path opacity="0.1955" d="M345.655 270.256L347.24 268.671L345.074 268.09L345.655 270.256Z" fill="#00AEEF"/>
    <path opacity="0.7775" d="M349.273 256.75L347.687 258.335L349.853 258.91L349.273 256.75Z" fill="#00AEEF"/>
    <path opacity="0.4017" d="M359.031 254.137L359.606 256.297L361.191 254.718L359.031 254.137Z" fill="#00AEEF"/>
    <path opacity="0.6878" d="M363.23 242.793L361.645 244.378L363.805 244.959L363.23 242.793Z" fill="#00AEEF"/>
    <path opacity="0.4122" d="M372.983 240.18L373.563 242.346L375.148 240.761L372.983 240.18Z" fill="#00AEEF"/>
    <path opacity="0.6752" d="M322.271 315.061L322.852 317.226L324.437 315.641L322.271 315.061Z" fill="#00AEEF"/>
    <path opacity="0.7453" d="M326.47 303.723L324.885 305.308L327.051 305.889L326.47 303.723Z" fill="#00AEEF"/>
    <path opacity="0.3925" d="M338.395 301.69L336.229 301.109L336.81 303.275L338.395 301.69Z" fill="#00AEEF"/>
    <path opacity="0.6287" d="M340.428 289.766L338.842 291.351L341.008 291.932L340.428 289.766Z" fill="#00AEEF"/>
    <path opacity="0.4079" d="M352.346 287.733L350.18 287.152L350.761 289.318L352.346 287.733Z" fill="#00AEEF"/>
    <path opacity="0.7337" d="M354.379 275.814L352.794 277.4L354.96 277.974L354.379 275.814Z" fill="#00AEEF"/>
    <path opacity="0.4408" d="M364.718 275.361L366.303 273.776L364.137 273.201L364.718 275.361Z" fill="#00AEEF"/>
    <path opacity="0.5336" d="M368.336 261.857L366.751 263.443L368.917 264.023L368.336 261.857Z" fill="#00AEEF"/>
    <path opacity="0.3524" d="M378.095 259.242L378.669 261.408L380.255 259.823L378.095 259.242Z" fill="#00AEEF"/>
    <path opacity="0.2937" d="M382.287 247.906L380.708 249.485L382.868 250.066L382.287 247.906Z" fill="#00AEEF"/>
    <path opacity="0.2051" d="M392.046 245.285L392.627 247.451L394.212 245.866L392.046 245.285Z" fill="#00AEEF"/>
    <path opacity="0.3892" d="M459.443 298.73L460.024 300.89L461.609 299.305L459.443 298.73Z" fill="#00AEEF"/>
    <path opacity="0.592" d="M449.684 301.346L448.099 302.931L450.265 303.506L449.684 301.346Z" fill="#00AEEF"/>
    <path opacity="0.3732" d="M445.486 312.684L446.066 314.849L447.652 313.264L445.486 312.684Z" fill="#00AEEF"/>
    <path opacity="0.2639" d="M435.733 315.297L434.148 316.882L436.308 317.463L435.733 315.297Z" fill="#00AEEF"/>
    <path opacity="0.8444" d="M431.534 326.641L432.115 328.806L433.694 327.221L431.534 326.641Z" fill="#00AEEF"/>
    <path opacity="0.9446" d="M421.776 329.254L420.191 330.839L422.357 331.42L421.776 329.254Z" fill="#00AEEF"/>
    <path opacity="0.2035" d="M417.577 340.592L418.158 342.758L419.743 341.173L417.577 340.592Z" fill="#00AEEF"/>
    <path opacity="0.6789" d="M407.825 343.205L406.239 344.79L408.399 345.371L407.825 343.205Z" fill="#00AEEF"/>
    <path opacity="0.2328" d="M458.529 268.324L456.944 269.909L459.11 270.49L458.529 268.324Z" fill="#00AEEF"/>
    <path opacity="0.2946" d="M454.331 279.668L454.912 281.828L456.497 280.249L454.331 279.668Z" fill="#00AEEF"/>
    <path opacity="0.7444" d="M444.578 282.281L442.993 283.866L445.159 284.441L444.578 282.281Z" fill="#00AEEF"/>
    <path opacity="0.921" d="M440.38 293.619L440.96 295.785L442.546 294.2L440.38 293.619Z" fill="#00AEEF"/>
    <path opacity="0.2636" d="M430.621 296.232L429.036 297.818L431.202 298.398L430.621 296.232Z" fill="#00AEEF"/>
    <path opacity="0.1939" d="M426.422 307.576L427.003 309.742L428.588 308.157L426.422 307.576Z" fill="#00AEEF"/>
    <path opacity="0.1986" d="M416.67 310.191L415.084 311.777L417.25 312.357L416.67 310.191Z" fill="#00AEEF"/>
    <path opacity="0.36" d="M414.637 322.108L412.471 321.527L413.052 323.693L414.637 322.108Z" fill="#00AEEF"/>
    <path opacity="0.6759" d="M402.712 324.143L401.127 325.728L403.293 326.308L402.712 324.143Z" fill="#00AEEF"/>
    <path opacity="0.4487" d="M398.513 335.486L399.094 337.652L400.679 336.067L398.513 335.486Z" fill="#00AEEF"/>
    <path opacity="0.3829" d="M388.761 338.098L387.176 339.683L389.336 340.264L388.761 338.098Z" fill="#00AEEF"/>
    <path opacity="0.7431" d="M453.423 249.262L451.838 250.847L454.004 251.428L453.423 249.262Z" fill="#00AEEF"/>
    <path opacity="0.1611" d="M449.225 260.605L449.805 262.765L451.39 261.186L449.225 260.605Z" fill="#00AEEF"/>
    <path opacity="0.7913" d="M439.466 263.219L437.881 264.804L440.047 265.379L439.466 263.219Z" fill="#00AEEF"/>
    <path opacity="0.2693" d="M435.267 274.557L435.848 276.723L437.433 275.137L435.267 274.557Z" fill="#00AEEF"/>
    <path opacity="0.5662" d="M425.515 277.17L423.93 278.755L426.096 279.336L425.515 277.17Z" fill="#00AEEF"/>
    <path opacity="0.6409" d="M421.316 288.514L421.897 290.68L423.482 289.094L421.316 288.514Z" fill="#00AEEF"/>
    <path opacity="0.4758" d="M411.557 291.127L409.972 292.712L412.138 293.293L411.557 291.127Z" fill="#00AEEF"/>
    <path opacity="0.1916" d="M409.525 303.046L407.359 302.465L407.939 304.631L409.525 303.046Z" fill="#00AEEF"/>
    <path opacity="0.5201" d="M397.606 305.078L396.021 306.663L398.187 307.244L397.606 305.078Z" fill="#00AEEF"/>
    <path opacity="0.9932" d="M395.573 317.003L393.407 316.422L393.988 318.588L395.573 317.003Z" fill="#00AEEF"/>
    <path opacity="0.3313" d="M383.649 319.035L382.063 320.62L384.229 321.201L383.649 319.035Z" fill="#00AEEF"/>
    <path opacity="0.4906" d="M379.45 330.373L380.031 332.539L381.616 330.954L379.45 330.373Z" fill="#00AEEF"/>
    <path opacity="0.3791" d="M369.697 332.988L368.112 334.573L370.272 335.154L369.697 332.988Z" fill="#00AEEF"/>
    <path opacity="0.4749" d="M446.278 242.122L444.118 241.541L444.693 243.707L446.278 242.122Z" fill="#00AEEF"/>
    <path opacity="0.338" d="M434.36 244.156L432.775 245.741L434.941 246.322L434.36 244.156Z" fill="#00AEEF"/>
    <path opacity="0.658" d="M432.327 256.073L430.161 255.492L430.742 257.658L432.327 256.073Z" fill="#00AEEF"/>
    <path opacity="0.3638" d="M420.402 258.105L418.817 259.691L420.983 260.271L420.402 258.105Z" fill="#00AEEF"/>
    <path opacity="0.1768" d="M418.37 270.03L416.204 269.449L416.784 271.615L418.37 270.03Z" fill="#00AEEF"/>
    <path opacity="0.1679" d="M406.451 272.062L404.866 273.648L407.032 274.228L406.451 272.062Z" fill="#00AEEF"/>
    <path opacity="0.2947" d="M402.252 283.402L402.833 285.568L404.418 283.983L402.252 283.402Z" fill="#00AEEF"/>
    <path opacity="0.1391" d="M392.494 286.016L390.909 287.601L393.075 288.182L392.494 286.016Z" fill="#00AEEF"/>
    <path opacity="0.594" d="M388.295 297.357L388.876 299.523L390.461 297.938L388.295 297.357Z" fill="#00AEEF"/>
    <path opacity="0.6874" d="M378.542 299.973L376.957 301.558L379.123 302.139L378.542 299.973Z" fill="#00AEEF"/>
    <path opacity="0.8737" d="M374.344 311.311L374.925 313.476L376.51 311.891L374.344 311.311Z" fill="#00AEEF"/>
    <path opacity="0.7902" d="M364.585 313.924L363 315.509L365.166 316.09L364.585 313.924Z" fill="#00AEEF"/>
    <path opacity="0.5629" d="M360.386 325.268L360.967 327.433L362.552 325.848L360.386 325.268Z" fill="#00AEEF"/>
    <path opacity="0.1469" d="M350.634 327.881L349.049 329.466L351.215 330.047L350.634 327.881Z" fill="#00AEEF"/>
    <path opacity="0.5055" d="M427.215 237.01L425.055 236.43L425.636 238.596L427.215 237.01Z" fill="#00AEEF"/>
    <path opacity="0.9666" d="M415.296 239.043L413.711 240.628L415.877 241.209L415.296 239.043Z" fill="#00AEEF"/>
    <path opacity="0.7707" d="M413.263 250.968L411.098 250.387L411.678 252.553L413.263 250.968Z" fill="#00AEEF"/>
    <path opacity="0.832" d="M401.339 253L399.76 254.585L401.92 255.166L401.339 253Z" fill="#00AEEF"/>
    <path opacity="0.7355" d="M397.14 264.338L397.721 266.504L399.306 264.919L397.14 264.338Z" fill="#00AEEF"/>
    <path opacity="0.6485" d="M387.388 266.951L385.802 268.536L387.968 269.117L387.388 266.951Z" fill="#00AEEF"/>
    <path opacity="0.1725" d="M383.189 278.295L383.77 280.461L385.355 278.876L383.189 278.295Z" fill="#00AEEF"/>
    <path opacity="0.1796" d="M373.43 280.908L371.845 282.493L374.011 283.074L373.43 280.908Z" fill="#00AEEF"/>
    <path opacity="0.3003" d="M371.397 292.827L369.231 292.252L369.812 294.412L371.397 292.827Z" fill="#00AEEF"/>
    <path opacity="0.41" d="M359.479 294.867L357.894 296.446L360.06 297.027L359.479 294.867Z" fill="#00AEEF"/>
    <path opacity="0.207" d="M357.446 306.784L355.28 306.203L355.861 308.369L357.446 306.784Z" fill="#00AEEF"/>
    <path opacity="0.1688" d="M345.522 308.816L343.936 310.402L346.102 310.982L345.522 308.816Z" fill="#00AEEF"/>
    <path opacity="0.8934" d="M341.323 320.16L341.904 322.32L343.489 320.735L341.323 320.16Z" fill="#00AEEF"/>
    <path opacity="0.7654" d="M331.57 322.773L329.985 324.359L332.145 324.933L331.57 322.773Z" fill="#00AEEF"/>
    <path opacity="0.4849" d="M424.849 360.235L422.689 359.654L423.264 361.82L424.849 360.235Z" fill="#00AEEF"/>
    <path opacity="0.1174" d="M426.882 348.318L425.303 349.903L427.463 350.484L426.882 348.318Z" fill="#00AEEF"/>
    <path opacity="0.6102" d="M438.806 346.284L436.641 345.703L437.221 347.863L438.806 346.284Z" fill="#00AEEF"/>
    <path opacity="0.2076" d="M440.839 334.359L439.254 335.945L441.42 336.525L440.839 334.359Z" fill="#00AEEF"/>
    <path opacity="0.3458" d="M452.758 332.327L450.598 331.746L451.179 333.912L452.758 332.327Z" fill="#00AEEF"/>
    <path opacity="0.3457" d="M454.797 320.41L453.212 321.989L455.372 322.57L454.797 320.41Z" fill="#00AEEF"/>
    <path opacity="0.7918" d="M445.945 353.424L444.36 355.009L446.526 355.59L445.945 353.424Z" fill="#00AEEF"/>
    <path opacity="0.1744" d="M457.87 351.391L455.704 350.811L456.285 352.976L457.87 351.391Z" fill="#00AEEF"/>
    <path opacity="0.2263" d="M459.903 339.467L458.318 341.052L460.484 341.633L459.903 339.467Z" fill="#00AEEF"/>
    <path opacity="0.4973" d="M181.573 120.123L183.158 118.538L180.992 117.963L181.573 120.123Z" fill="#00AEEF"/>
    <path opacity="0.769" d="M185.771 108.785L185.191 106.619L183.605 108.204L185.771 108.785Z" fill="#00AEEF"/>
    <path opacity="0.8614" d="M195.524 106.174L197.109 104.589L194.943 104.008L195.524 106.174Z" fill="#00AEEF"/>
    <path opacity="0.9717" d="M199.723 94.83L199.142 92.6641L197.557 94.2492L199.723 94.83Z" fill="#00AEEF"/>
    <path opacity="0.8379" d="M209.481 92.2147L211.066 90.6296L208.9 90.0488L209.481 92.2147Z" fill="#00AEEF"/>
    <path opacity="0.659" d="M213.68 80.8768L213.099 78.7109L211.514 80.296L213.68 80.8768Z" fill="#00AEEF"/>
    <path opacity="0.4198" d="M223.433 78.2636L225.018 76.6785L222.858 76.0977L223.433 78.2636Z" fill="#00AEEF"/>
    <path opacity="0.1468" d="M227.631 66.9198L227.05 64.7539L225.471 66.339L227.631 66.9198Z" fill="#00AEEF"/>
    <path opacity="0.9609" d="M237.39 64.3065L238.975 62.7214L236.809 62.1406L237.39 64.3065Z" fill="#00AEEF"/>
    <path opacity="0.6126" d="M241.589 52.9686L241.008 50.8027L239.423 52.3878L241.589 52.9686Z" fill="#00AEEF"/>
    <path opacity="0.2447" d="M251.341 50.3554L252.926 48.7703L250.766 48.1895L251.341 50.3554Z" fill="#00AEEF"/>
    <path opacity="0.7067" d="M186.679 139.187L188.264 137.602L186.098 137.021L186.679 139.187Z" fill="#00AEEF"/>
    <path opacity="0.3223" d="M190.878 127.849L190.297 125.684L188.712 127.269L190.878 127.849Z" fill="#00AEEF"/>
    <path opacity="0.8253" d="M200.636 125.236L202.221 123.651L200.055 123.07L200.636 125.236Z" fill="#00AEEF"/>
    <path opacity="0.6559" d="M204.835 113.892L204.254 111.727L202.669 113.312L204.835 113.892Z" fill="#00AEEF"/>
    <path opacity="0.1867" d="M214.588 111.279L216.173 109.694L214.007 109.113L214.588 111.279Z" fill="#00AEEF"/>
    <path opacity="0.265" d="M218.786 99.9413L218.205 97.7754L216.62 99.3605L218.786 99.9413Z" fill="#00AEEF"/>
    <path opacity="0.5626" d="M228.545 97.3261L230.13 95.741L227.964 95.1602L228.545 97.3261Z" fill="#00AEEF"/>
    <path opacity="0.819" d="M232.744 85.9823L232.163 83.8164L230.578 85.4015L232.744 85.9823Z" fill="#00AEEF"/>
    <path opacity="0.788" d="M242.496 83.369L244.081 81.7839L241.915 81.2031L242.496 83.369Z" fill="#00AEEF"/>
    <path opacity="0.4852" d="M244.529 71.4523L246.695 72.0331L246.114 69.8672L244.529 71.4523Z" fill="#00AEEF"/>
    <path opacity="0.7344" d="M256.453 69.4178L258.039 67.8328L255.873 67.252L256.453 69.4178Z" fill="#00AEEF"/>
    <path opacity="0.1597" d="M260.652 58.0741L260.071 55.9082L258.486 57.4933L260.652 58.0741Z" fill="#00AEEF"/>
    <path opacity="0.2316" d="M270.411 55.4628L271.99 53.8777L269.83 53.2969L270.411 55.4628Z" fill="#00AEEF"/>
    <path opacity="0.6758" d="M191.791 158.25L193.37 156.665L191.21 156.084L191.791 158.25Z" fill="#00AEEF"/>
    <path opacity="0.699" d="M193.824 146.333L195.984 146.914L195.409 144.748L193.824 146.333Z" fill="#00AEEF"/>
    <path opacity="0.1457" d="M205.742 144.301L207.327 142.716L205.162 142.135L205.742 144.301Z" fill="#00AEEF"/>
    <path opacity="0.9124" d="M209.941 132.955L209.36 130.789L207.775 132.374L209.941 132.955Z" fill="#00AEEF"/>
    <path opacity="0.8967" d="M219.7 130.342L221.285 128.757L219.119 128.176L219.7 130.342Z" fill="#00AEEF"/>
    <path opacity="0.7733" d="M223.898 119.006L223.318 116.84L221.733 118.425L223.898 119.006Z" fill="#00AEEF"/>
    <path opacity="0.4334" d="M233.651 116.391L235.236 114.805L233.07 114.225L233.651 116.391Z" fill="#00AEEF"/>
    <path opacity="0.7823" d="M237.85 105.047L237.269 102.881L235.684 104.466L237.85 105.047Z" fill="#00AEEF"/>
    <path opacity="0.6758" d="M247.608 102.433L249.193 100.848L247.028 100.268L247.608 102.433Z" fill="#00AEEF"/>
    <path opacity="0.7279" d="M249.641 90.5148L251.807 91.0895L251.226 88.9297L249.641 90.5148Z" fill="#00AEEF"/>
    <path opacity="0.52" d="M261.56 88.4763L263.145 86.8972L260.979 86.3164L261.56 88.4763Z" fill="#00AEEF"/>
    <path opacity="0.3631" d="M263.592 76.5578L265.758 77.1386L265.178 74.9727L263.592 76.5578Z" fill="#00AEEF"/>
    <path opacity="0.5842" d="M275.517 74.5253L277.102 72.9402L274.936 72.3594L275.517 74.5253Z" fill="#00AEEF"/>
    <path opacity="0.8324" d="M279.716 63.1813L279.135 61.0215L277.55 62.6005L279.716 63.1813Z" fill="#00AEEF"/>
    <path opacity="0.2411" d="M198.482 175.729L196.316 175.148L196.897 177.314L198.482 175.729Z" fill="#00AEEF"/>
    <path opacity="0.4328" d="M198.93 165.396L201.096 165.976L200.515 163.811L198.93 165.396Z" fill="#00AEEF"/>
    <path opacity="0.4737" d="M210.855 163.363L212.434 161.778L210.274 161.197L210.855 163.363Z" fill="#00AEEF"/>
    <path opacity="0.7897" d="M212.887 151.439L215.047 152.019L214.473 149.854L212.887 151.439Z" fill="#00AEEF"/>
    <path opacity="0.4269" d="M224.806 149.406L226.391 147.821L224.225 147.24L224.806 149.406Z" fill="#00AEEF"/>
    <path opacity="0.2644" d="M226.839 137.487L229.005 138.068L228.424 135.902L226.839 137.487Z" fill="#00AEEF"/>
    <path opacity="0.5188" d="M238.763 135.455L240.348 133.87L238.182 133.289L238.763 135.455Z" fill="#00AEEF"/>
    <path opacity="0.2124" d="M240.796 123.53L242.962 124.111L242.381 121.945L240.796 123.53Z" fill="#00AEEF"/>
    <path opacity="0.1389" d="M252.715 121.498L254.3 119.913L252.134 119.332L252.715 121.498Z" fill="#00AEEF"/>
    <path opacity="0.8912" d="M256.913 110.152L256.332 107.992L254.747 109.577L256.913 110.152Z" fill="#00AEEF"/>
    <path opacity="0.7038" d="M266.672 107.539L268.257 105.96L266.091 105.379L266.672 107.539Z" fill="#00AEEF"/>
    <path opacity="0.2681" d="M270.871 96.2011L270.29 94.0352L268.705 95.6203L270.871 96.2011Z" fill="#00AEEF"/>
    <path opacity="0.5988" d="M280.623 93.5878L282.208 92.0027L280.042 91.4219L280.623 93.5878Z" fill="#00AEEF"/>
    <path opacity="0.5213" d="M202.003 196.377L203.589 194.792L201.423 194.211L202.003 196.377Z" fill="#00AEEF"/>
    <path opacity="0.1932" d="M204.036 184.46L206.202 185.041L205.621 182.875L204.036 184.46Z" fill="#00AEEF"/>
    <path opacity="0.2715" d="M217.546 180.841L215.38 180.26L215.961 182.426L217.546 180.841Z" fill="#00AEEF"/>
    <path opacity="0.7304" d="M217.994 170.501L220.16 171.082L219.579 168.916L217.994 170.501Z" fill="#00AEEF"/>
    <path opacity="0.626" d="M231.497 166.885L229.337 166.305L229.912 168.471L231.497 166.885Z" fill="#00AEEF"/>
    <path opacity="0.4174" d="M231.951 156.55L234.111 157.131L233.53 154.965L231.951 156.55Z" fill="#00AEEF"/>
    <path opacity="0.2274" d="M243.869 154.511L245.455 152.932L243.289 152.352L243.869 154.511Z" fill="#00AEEF"/>
    <path opacity="0.4668" d="M245.902 142.593L248.068 143.174L247.487 141.008L245.902 142.593Z" fill="#00AEEF"/>
    <path opacity="0.1164" d="M257.827 140.56L259.412 138.975L257.246 138.395L257.827 140.56Z" fill="#00AEEF"/>
    <path opacity="0.1062" d="M262.019 129.216L261.445 127.057L259.86 128.642L262.019 129.216Z" fill="#00AEEF"/>
    <path opacity="0.358" d="M271.778 126.603L273.363 125.018L271.197 124.443L271.778 126.603Z" fill="#00AEEF"/>
    <path opacity="0.2126" d="M275.977 115.266L275.396 113.1L273.811 114.685L275.977 115.266Z" fill="#00AEEF"/>
    <path opacity="0.5494" d="M280.278 204.878L282.444 205.459L281.863 203.293L280.278 204.878Z" fill="#00AEEF"/>
    <path opacity="0.9862" d="M278.246 216.803L279.831 215.218L277.665 214.637L278.246 216.803Z" fill="#00AEEF"/>
    <path opacity="0.5923" d="M266.327 218.835L268.493 219.416L267.912 217.25L266.327 218.835Z" fill="#00AEEF"/>
    <path opacity="0.2534" d="M275.172 185.816L277.338 186.396L276.757 184.23L275.172 185.816Z" fill="#00AEEF"/>
    <path opacity="0.5612" d="M274.724 196.155L272.559 195.574L273.139 197.74L274.724 196.155Z" fill="#00AEEF"/>
    <path opacity="0.5097" d="M261.215 199.773L263.381 200.353L262.8 198.188L261.215 199.773Z" fill="#00AEEF"/>
    <path opacity="0.487" d="M259.182 211.691L260.767 210.106L258.601 209.531L259.182 211.691Z" fill="#00AEEF"/>
    <path opacity="0.3865" d="M249.429 214.304L248.849 212.145L247.264 213.73L249.429 214.304Z" fill="#00AEEF"/>
    <path opacity="0.5702" d="M281.984 164.719L283.57 163.134L281.404 162.553L281.984 164.719Z" fill="#00AEEF"/>
    <path opacity="0.3791" d="M270.06 166.751L272.226 167.332L271.645 165.166L270.06 166.751Z" fill="#00AEEF"/>
    <path opacity="0.7701" d="M268.027 178.676L269.612 177.091L267.446 176.51L268.027 178.676Z" fill="#00AEEF"/>
    <path opacity="0.3606" d="M256.109 180.708L258.275 181.289L257.694 179.123L256.109 180.708Z" fill="#00AEEF"/>
    <path opacity="0.5694" d="M254.076 192.627L255.661 191.048L253.495 190.467L254.076 192.627Z" fill="#00AEEF"/>
    <path opacity="0.1823" d="M244.317 195.242L243.736 193.082L242.151 194.667L244.317 195.242Z" fill="#00AEEF"/>
    <path opacity="0.729" d="M240.118 206.584L241.704 204.999L239.538 204.418L240.118 206.584Z" fill="#00AEEF"/>
    <path opacity="0.4403" d="M230.366 209.197L229.785 207.031L228.2 208.616L230.366 209.197Z" fill="#00AEEF"/>
    <path opacity="0.6284" d="M281.071 134.318L280.496 132.152L278.911 133.737L281.071 134.318Z" fill="#00AEEF"/>
    <path opacity="0.318" d="M276.872 145.656L278.457 144.071L276.297 143.496L276.872 145.656Z" fill="#00AEEF"/>
    <path opacity="0.8516" d="M267.12 148.269L266.539 146.109L264.954 147.688L267.12 148.269Z" fill="#00AEEF"/>
    <path opacity="0.7188" d="M262.921 159.611L264.506 158.026L262.34 157.445L262.921 159.611Z" fill="#00AEEF"/>
    <path opacity="0.4232" d="M251.002 161.646L253.162 162.226L252.581 160.061L251.002 161.646Z" fill="#00AEEF"/>
    <path opacity="0.7595" d="M248.964 173.564L250.549 171.985L248.383 171.404L248.964 173.564Z" fill="#00AEEF"/>
    <path opacity="0.3968" d="M237.045 175.603L239.211 176.177L238.63 174.018L237.045 175.603Z" fill="#00AEEF"/>
    <path opacity="0.7714" d="M236.597 185.936L234.431 185.355L235.012 187.521L236.597 185.936Z" fill="#00AEEF"/>
    <path opacity="0.8677" d="M223.088 189.554L225.254 190.135L224.673 187.969L223.088 189.554Z" fill="#00AEEF"/>
    <path opacity="0.4679" d="M221.055 201.478L222.64 199.893L220.474 199.312L221.055 201.478Z" fill="#00AEEF"/>
    <path opacity="0.1477" d="M209.136 203.511L211.302 204.092L210.722 201.926L209.136 203.511Z" fill="#00AEEF"/>
    <path opacity="0.5937" d="M150.572 350.205L162.055 338.722L146.368 334.518L150.572 350.205Z" fill="#00AEEF"/>
    <path opacity="0.9571" d="M151.48 353.58L155.679 369.262L167.161 357.785L151.48 353.58Z" fill="#00AEEF"/>
    <path opacity="0.5075" d="M152 351.633L167.682 355.832L163.483 340.15L152 351.633Z" fill="#00AEEF"/>
    <path opacity="0.2301" d="M169.636 355.31L181.119 343.828L165.431 339.629L169.636 355.31Z" fill="#00AEEF"/>
    <path opacity="0.7848" d="M171.052 356.727L186.733 360.932L182.535 345.244L171.052 356.727Z" fill="#00AEEF"/>
    <path opacity="0.6899" d="M174.73 374.363L186.213 362.881L170.531 358.676L174.73 374.363Z" fill="#00AEEF"/>
    <path opacity="0.8171" d="M157.094 370.684L172.782 374.883L168.577 359.201L157.094 370.684Z" fill="#00AEEF"/>
    <path opacity="0.3844" d="M292.657 243.58L292.076 241.414L290.491 242.999L292.657 243.58Z" fill="#00AEEF"/>
    <path opacity="0.5017" d="M197.357 218.049L196.776 215.883L195.191 217.468L197.357 218.049Z" fill="#00AEEF"/>
    <path opacity="0.5821" d="M206.529 213.27L207.11 215.435L208.695 213.85L206.529 213.27Z" fill="#00AEEF"/>
    <path opacity="0.8294" d="M216.421 223.154L215.84 220.988L214.255 222.573L216.421 223.154Z" fill="#00AEEF"/>
    <path opacity="0.5764" d="M226.173 220.541L227.758 218.956L225.592 218.375L226.173 220.541Z" fill="#00AEEF"/>
    <path opacity="0.9488" d="M235.478 228.261L234.903 226.102L233.318 227.687L235.478 228.261Z" fill="#00AEEF"/>
    <path opacity="0.1952" d="M244.656 223.488L245.237 225.648L246.822 224.069L244.656 223.488Z" fill="#00AEEF"/>
    <path opacity="0.5652" d="M254.542 233.373L253.967 231.207L252.382 232.792L254.542 233.373Z" fill="#00AEEF"/>
    <path opacity="0.3903" d="M263.719 228.594L264.3 230.76L265.885 229.175L263.719 228.594Z" fill="#00AEEF"/>
    <path opacity="0.8901" d="M273.605 238.478L273.03 236.312L271.445 237.898L273.605 238.478Z" fill="#00AEEF"/>
    <path opacity="0.8446" d="M312.513 317.668L310.928 319.253L313.094 319.834L312.513 317.668Z" fill="#00AEEF"/>
    <path opacity="0.3669" d="M310.48 329.587L308.314 329.006L308.895 331.172L310.48 329.587Z" fill="#00AEEF"/>
    <path opacity="0.3599" d="M307.407 298.605L305.822 300.191L307.987 300.771L307.407 298.605Z" fill="#00AEEF"/>
    <path opacity="0.616" d="M303.208 309.943L303.789 312.109L305.374 310.524L303.208 309.943Z" fill="#00AEEF"/>
    <path opacity="0.3298" d="M302.294 279.541L300.709 281.126L302.875 281.707L302.294 279.541Z" fill="#00AEEF"/>
    <path opacity="0.2449" d="M300.262 291.46L298.096 290.879L298.676 293.045L300.262 291.46Z" fill="#00AEEF"/>
    <path opacity="0.31" d="M297.188 260.479L295.603 262.064L297.769 262.644L297.188 260.479Z" fill="#00AEEF"/>
    <path opacity="0.867" d="M293.57 273.98L295.155 272.395L292.989 271.814L293.57 273.98Z" fill="#00AEEF"/>
    <path opacity="0.2128" d="M287.883 252.752L288.458 254.918L290.043 253.333L287.883 252.752Z" fill="#00AEEF"/>
    <path opacity="0.3777" d="M184.114 232.713L183.079 228.859L180.26 231.685L184.114 232.713Z" fill="#00AEEF"/>
    <path opacity="0.8248" d="M192.892 230.368L195.717 227.542L191.864 226.508L192.892 230.368Z" fill="#00AEEF"/>
    <path opacity="0.7176" d="M203.177 237.827L202.143 233.973L199.323 236.792L203.177 237.827Z" fill="#00AEEF"/>
    <path opacity="0.3106" d="M211.956 235.473L214.781 232.654L210.927 231.619L211.956 235.473Z" fill="#00AEEF"/>
    <path opacity="0.5727" d="M222.241 242.932L221.206 239.078L218.387 241.897L222.241 242.932Z" fill="#00AEEF"/>
    <path opacity="0.1843" d="M231.019 240.58L233.845 237.761L229.991 236.727L231.019 240.58Z" fill="#00AEEF"/>
    <path opacity="0.7967" d="M241.304 248.043L240.27 244.184L237.45 247.009L241.304 248.043Z" fill="#00AEEF"/>
    <path opacity="0.8299" d="M249.054 241.838L250.083 245.692L252.908 242.866L249.054 241.838Z" fill="#00AEEF"/>
    <path opacity="0.362" d="M260.368 253.151L259.333 249.297L256.514 252.116L260.368 253.151Z" fill="#00AEEF"/>
    <path opacity="0.3309" d="M269.146 250.797L271.972 247.978L268.118 246.943L269.146 250.797Z" fill="#00AEEF"/>
    <path opacity="0.5263" d="M298.822 330.645L295.996 333.464L299.85 334.498L298.822 330.645Z" fill="#00AEEF"/>
    <path opacity="0.4794" d="M297.503 343.285L293.649 342.25L294.677 346.104L297.503 343.285Z" fill="#00AEEF"/>
    <path opacity="0.5965" d="M293.709 311.582L290.89 314.401L294.744 315.436L293.709 311.582Z" fill="#00AEEF"/>
    <path opacity="0.9926" d="M288.537 323.186L289.571 327.039L292.39 324.22L288.537 323.186Z" fill="#00AEEF"/>
    <path opacity="0.3851" d="M289.638 296.371L288.603 292.518L285.784 295.343L289.638 296.371Z" fill="#00AEEF"/>
    <path opacity="0.6314" d="M284.459 307.975L287.284 305.156L283.43 304.121L284.459 307.975Z" fill="#00AEEF"/>
    <path opacity="0.9706" d="M284.525 277.309L283.491 273.455L280.672 276.274L284.525 277.309Z" fill="#00AEEF"/>
    <path opacity="0.78" d="M279.353 288.912L282.172 286.093L278.318 285.059L279.353 288.912Z" fill="#00AEEF"/>
    <path opacity="0.8187" d="M279.419 258.244L278.385 254.391L275.565 257.216L279.419 258.244Z" fill="#00AEEF"/>
    <path opacity="0.7737" d="M274.246 269.85L277.066 267.031L273.212 265.996L274.246 269.85Z" fill="#00AEEF"/>
    <path opacity="0.6903" d="M165.328 245.897L170.876 247.386L169.388 241.838L165.328 245.897Z" fill="#00AEEF"/>
    <path opacity="0.8053" d="M178.681 245.292L182.734 241.232L177.192 239.75L178.681 245.292Z" fill="#00AEEF"/>
    <path opacity="0.3161" d="M189.94 252.491L188.451 246.949L184.392 251.009L189.94 252.491Z" fill="#00AEEF"/>
    <path opacity="0.9109" d="M197.744 250.405L201.798 246.346L196.256 244.857L197.744 250.405Z" fill="#00AEEF"/>
    <path opacity="0.6116" d="M208.997 257.603L207.515 252.055L203.455 256.114L208.997 257.603Z" fill="#00AEEF"/>
    <path opacity="0.1551" d="M216.808 255.511L220.861 251.451L215.319 249.969L216.808 255.511Z" fill="#00AEEF"/>
    <path opacity="0.72" d="M228.061 262.71L226.579 257.168L222.519 261.228L228.061 262.71Z" fill="#00AEEF"/>
    <path opacity="0.9466" d="M235.871 260.622L239.925 256.563L234.383 255.074L235.871 260.622Z" fill="#00AEEF"/>
    <path opacity="0.9467" d="M247.124 267.821L245.642 262.273L241.583 266.333L247.124 267.821Z" fill="#00AEEF"/>
    <path opacity="0.1884" d="M254.935 265.729L258.988 261.67L253.447 260.188L254.935 265.729Z" fill="#00AEEF"/>
    <path opacity="0.5572" d="M286.613 349.171L285.124 343.623L281.071 347.683L286.613 349.171Z" fill="#00AEEF"/>
    <path opacity="0.184" d="M284.519 356.977L278.978 355.488L280.466 361.036L284.519 356.977Z" fill="#00AEEF"/>
    <path opacity="0.4059" d="M281.506 330.106L280.018 324.559L275.959 328.618L281.506 330.106Z" fill="#00AEEF"/>
    <path opacity="0.9803" d="M273.871 336.422L275.354 341.97L279.413 337.91L273.871 336.422Z" fill="#00AEEF"/>
    <path opacity="0.4555" d="M270.852 309.556L276.394 311.044L274.912 305.496L270.852 309.556Z" fill="#00AEEF"/>
    <path opacity="0.9418" d="M270.247 322.907L274.307 318.848L268.759 317.359L270.247 322.907Z" fill="#00AEEF"/>
    <path opacity="0.2494" d="M271.288 291.981L269.8 286.434L265.74 290.493L271.288 291.981Z" fill="#00AEEF"/>
    <path opacity="0.781" d="M265.135 303.845L269.195 299.785L263.653 298.297L265.135 303.845Z" fill="#00AEEF"/>
    <path opacity="0.2455" d="M266.176 272.915L264.694 267.367L260.634 271.427L266.176 272.915Z" fill="#00AEEF"/>
    <path opacity="0.4666" d="M260.029 284.78L264.089 280.721L258.541 279.232L260.029 284.78Z" fill="#00AEEF"/>
    <path opacity="0.8293" d="M150.397 260.114L157.633 262.056L155.697 254.82L150.397 260.114Z" fill="#00AEEF"/>
    <path opacity="0.8162" d="M162.521 252.988L164.463 260.224L169.757 254.93L162.521 252.988Z" fill="#00AEEF"/>
    <path opacity="0.8873" d="M169.46 265.22L176.696 267.162L174.76 259.926L169.46 265.22Z" fill="#00AEEF"/>
    <path opacity="0.2135" d="M181.585 258.1L183.527 265.335L188.821 260.036L181.585 258.1Z" fill="#00AEEF"/>
    <path opacity="0.6558" d="M195.76 272.269L193.824 265.039L188.524 270.333L195.76 272.269Z" fill="#00AEEF"/>
    <path opacity="0.3762" d="M200.648 263.207L202.59 270.443L207.884 265.149L200.648 263.207Z" fill="#00AEEF"/>
    <path opacity="0.7779" d="M214.823 277.38L212.881 270.145L207.588 275.438L214.823 277.38Z" fill="#00AEEF"/>
    <path opacity="0.4547" d="M221.654 275.548L226.948 270.254L219.712 268.318L221.654 275.548Z" fill="#00AEEF"/>
    <path opacity="0.1402" d="M226.651 280.552L233.887 282.488L231.945 275.252L226.651 280.552Z" fill="#00AEEF"/>
    <path opacity="0.6629" d="M240.717 280.66L246.011 275.36L238.775 273.424L240.717 280.66Z" fill="#00AEEF"/>
    <path opacity="0.9931" d="M271.433 356.605L266.139 361.899L273.369 363.835L271.433 356.605Z" fill="#00AEEF"/>
    <path opacity="0.2645" d="M268.263 344.773L266.327 337.543L261.027 342.837L268.263 344.773Z" fill="#00AEEF"/>
    <path opacity="0.2537" d="M266.436 351.604L259.2 349.668L261.136 356.904L266.436 351.604Z" fill="#00AEEF"/>
    <path opacity="0.7016" d="M263.157 325.708L261.215 318.479L255.921 323.772L263.157 325.708Z" fill="#00AEEF"/>
    <path opacity="0.9566" d="M256.03 337.839L261.324 332.54L254.088 330.604L256.03 337.839Z" fill="#00AEEF"/>
    <path opacity="0.5706" d="M258.045 306.65L256.109 299.414L250.809 304.708L258.045 306.65Z" fill="#00AEEF"/>
    <path opacity="0.4247" d="M250.924 318.775L256.217 313.475L248.982 311.539L250.924 318.775Z" fill="#00AEEF"/>
    <path opacity="0.939" d="M252.938 287.587L250.996 280.352L245.703 285.645L252.938 287.587Z" fill="#00AEEF"/>
    <path opacity="0.7037" d="M243.875 292.477L245.811 299.712L251.105 294.413L243.875 292.477Z" fill="#00AEEF"/>
    <path opacity="0.2026" d="M135.466 274.331L144.395 276.721L142 267.797L135.466 274.331Z" fill="#00AEEF"/>
    <path opacity="0.6575" d="M147.856 266.23L150.246 275.154L156.78 268.62L147.856 266.23Z" fill="#00AEEF"/>
    <path opacity="0.133" d="M154.529 279.438L163.453 281.834L161.063 272.904L154.529 279.438Z" fill="#00AEEF"/>
    <path opacity="0.1774" d="M166.919 271.336L169.309 280.26L175.843 273.732L166.919 271.336Z" fill="#00AEEF"/>
    <path opacity="0.2667" d="M173.593 284.55L182.522 286.939L180.127 278.016L173.593 284.55Z" fill="#00AEEF"/>
    <path opacity="0.909" d="M188.373 285.373L194.907 278.839L185.983 276.449L188.373 285.373Z" fill="#00AEEF"/>
    <path opacity="0.4867" d="M192.656 289.657L201.58 292.047L199.19 283.123L192.656 289.657Z" fill="#00AEEF"/>
    <path opacity="0.6872" d="M207.436 290.48L213.97 283.946L205.047 281.557L207.436 290.48Z" fill="#00AEEF"/>
    <path opacity="0.6957" d="M211.72 294.768L220.644 297.158L218.254 288.234L211.72 294.768Z" fill="#00AEEF"/>
    <path opacity="0.234" d="M224.11 286.668L226.5 295.592L233.034 289.058L224.11 286.668Z" fill="#00AEEF"/>
    <path opacity="0.3208" d="M246.096 357.054L255.026 359.443L252.63 350.52L246.096 357.054Z" fill="#00AEEF"/>
    <path opacity="0.2004" d="M244.529 362.904L246.925 371.828L253.453 365.3L244.529 362.904Z" fill="#00AEEF"/>
    <path opacity="0.5007" d="M240.99 337.991L249.913 340.381L247.524 331.457L240.99 337.991Z" fill="#00AEEF"/>
    <path opacity="0.7819" d="M239.423 343.84L241.812 352.764L248.346 346.236L239.423 343.84Z" fill="#00AEEF"/>
    <path opacity="0.4239" d="M235.883 318.927L244.807 321.316L242.411 312.393L235.883 318.927Z" fill="#00AEEF"/>
    <path opacity="0.8077" d="M236.706 333.707L243.24 327.173L234.31 324.777L236.706 333.707Z" fill="#00AEEF"/>
    <path opacity="0.4851" d="M230.771 299.862L239.695 302.252L237.305 293.328L230.771 299.862Z" fill="#00AEEF"/>
    <path opacity="0.6363" d="M231.594 314.645L238.128 308.111L229.204 305.715L231.594 314.645Z" fill="#00AEEF"/>
    <path opacity="0.6925" d="M136.028 290.087L143.802 282.318L133.185 279.469L136.028 290.087Z" fill="#00AEEF"/>
    <path opacity="0.9895" d="M139.604 293.655L150.215 296.498L147.372 285.887L139.604 293.655Z" fill="#00AEEF"/>
    <path opacity="0.2808" d="M155.092 295.194L162.866 287.426L152.248 284.582L155.092 295.194Z" fill="#00AEEF"/>
    <path opacity="0.4521" d="M158.667 298.762L169.279 301.612L166.435 290.994L158.667 298.762Z" fill="#00AEEF"/>
    <path opacity="0.7547" d="M174.155 300.305L181.93 292.531L171.312 289.688L174.155 300.305Z" fill="#00AEEF"/>
    <path opacity="0.9515" d="M177.731 303.874L188.343 306.717L185.499 296.105L177.731 303.874Z" fill="#00AEEF"/>
    <path opacity="0.2764" d="M193.219 305.411L200.987 297.642L190.375 294.799L193.219 305.411Z" fill="#00AEEF"/>
    <path opacity="0.8065" d="M196.794 308.979L207.406 311.823L204.563 301.211L196.794 308.979Z" fill="#00AEEF"/>
    <path opacity="0.1087" d="M212.282 310.518L220.051 302.75L209.439 299.906L212.282 310.518Z" fill="#00AEEF"/>
    <path opacity="0.5097" d="M226.058 352.208L236.676 355.051L233.832 344.434L226.058 352.208Z" fill="#00AEEF"/>
    <path opacity="0.9001" d="M224.751 357.084L227.595 367.696L235.369 359.927L224.751 357.084Z" fill="#00AEEF"/>
    <path opacity="0.3388" d="M220.952 333.143L231.564 335.987L228.72 325.369L220.952 333.143Z" fill="#00AEEF"/>
    <path opacity="0.3172" d="M230.257 340.863L219.645 338.02L222.489 348.631L230.257 340.863Z" fill="#00AEEF"/>
    <path opacity="0.4317" d="M215.84 314.081L226.458 316.924L223.614 306.307L215.84 314.081Z" fill="#00AEEF"/>
    <path opacity="0.9897" d="M217.383 329.569L225.151 321.801L214.533 318.957L217.383 329.569Z" fill="#00AEEF"/>
    <path opacity="0.129" d="M137.577 297.818L140.88 310.124L149.883 301.116L137.577 297.818Z" fill="#00AEEF"/>
    <path opacity="0.6365" d="M143.736 312.979L156.036 316.276L152.738 303.977L143.736 312.979Z" fill="#00AEEF"/>
    <path opacity="0.8888" d="M168.946 306.227L156.641 302.93L159.938 315.229L168.946 306.227Z" fill="#00AEEF"/>
    <path opacity="0.6841" d="M162.8 318.09L175.099 321.388L171.802 309.082L162.8 318.09Z" fill="#00AEEF"/>
    <path opacity="0.6951" d="M188.01 311.334L175.704 308.037L179.001 320.343L188.01 311.334Z" fill="#00AEEF"/>
    <path opacity="0.9657" d="M194.163 326.495L190.865 314.189L181.863 323.198L194.163 326.495Z" fill="#00AEEF"/>
    <path opacity="0.3307" d="M207.073 316.44L194.768 313.148L198.065 325.448L207.073 316.44Z" fill="#00AEEF"/>
    <path opacity="0.6083" d="M223.433 369.718L220.135 357.418L211.127 366.42L223.433 369.718Z" fill="#00AEEF"/>
    <path opacity="0.5722" d="M218.326 350.653L215.029 338.354L206.021 347.356L218.326 350.653Z" fill="#00AEEF"/>
    <path opacity="0.7687" d="M208.271 363.563L217.28 354.555L204.974 351.258L208.271 363.563Z" fill="#00AEEF"/>
    <path opacity="0.1159" d="M213.214 331.589L209.917 319.289L200.915 328.291L213.214 331.589Z" fill="#00AEEF"/>
    <path opacity="0.5895" d="M203.165 344.501L212.174 335.493L199.868 332.195L203.165 344.501Z" fill="#00AEEF"/>
    <path opacity="0.9275" d="M141.975 316.168L145.726 330.162L155.969 319.919L141.975 316.168Z" fill="#00AEEF"/>
    <path opacity="0.1427" d="M161.862 336.054L158.111 322.061L147.868 332.303L161.862 336.054Z" fill="#00AEEF"/>
    <path opacity="0.699" d="M161.039 321.279L164.79 335.273L175.033 325.03L161.039 321.279Z" fill="#00AEEF"/>
    <path opacity="0.5937" d="M180.925 341.165L177.174 327.172L166.932 337.415L180.925 341.165Z" fill="#00AEEF"/>
    <path opacity="0.1617" d="M183.854 340.38L194.096 330.138L180.103 326.387L183.854 340.38Z" fill="#00AEEF"/>
    <path opacity="0.7239" d="M191.089 361.573L205.083 365.324L201.332 351.33L191.089 361.573Z" fill="#00AEEF"/>
    <path opacity="0.8802" d="M188.948 359.431L199.19 349.189L185.197 345.438L188.948 359.431Z" fill="#00AEEF"/>
    <path opacity="0.4184" d="M199.977 346.259L196.226 332.266L185.983 342.508L199.977 346.259Z" fill="#00AEEF"/>
    <path opacity="0.989" d="M412.925 362.264L411.34 363.849L413.505 364.43L412.925 362.264Z" fill="#00AEEF"/>
    <path opacity="0.8893" d="M317.625 336.73L316.04 338.316L318.2 338.896L317.625 336.73Z" fill="#00AEEF"/>
    <path opacity="0.4929" d="M329.543 334.698L327.378 334.117L327.958 336.277L329.543 334.698Z" fill="#00AEEF"/>
    <path opacity="0.2081" d="M336.683 341.838L335.104 343.423L337.263 344.004L336.683 341.838Z" fill="#00AEEF"/>
    <path opacity="0.9779" d="M348.607 339.805L346.441 339.225L347.022 341.391L348.607 339.805Z" fill="#00AEEF"/>
    <path opacity="0.981" d="M355.746 346.951L354.167 348.53L356.327 349.111L355.746 346.951Z" fill="#00AEEF"/>
    <path opacity="0.1154" d="M367.671 344.911L365.505 344.336L366.085 346.496L367.671 344.911Z" fill="#00AEEF"/>
    <path opacity="0.4904" d="M374.81 352.057L373.224 353.642L375.39 354.223L374.81 352.057Z" fill="#00AEEF"/>
    <path opacity="0.2231" d="M386.734 350.022L384.568 349.441L385.149 351.607L386.734 350.022Z" fill="#00AEEF"/>
    <path opacity="0.3929" d="M393.873 357.164L392.288 358.749L394.454 359.33L393.873 357.164Z" fill="#00AEEF"/>
    <path opacity="0.9799" d="M403.632 354.549L404.213 356.715L405.798 355.13L403.632 354.549Z" fill="#00AEEF"/>
    <path opacity="0.1286" d="M303.928 349.709L301.109 352.528L304.962 353.563L303.928 349.709Z" fill="#00AEEF"/>
    <path opacity="0.4015" d="M316.566 348.39L312.712 347.355L313.741 351.209L316.566 348.39Z" fill="#00AEEF"/>
    <path opacity="0.7469" d="M322.991 354.816L320.172 357.642L324.026 358.676L322.991 354.816Z" fill="#00AEEF"/>
    <path opacity="0.9025" d="M335.63 353.497L331.77 352.469L332.804 356.323L335.63 353.497Z" fill="#00AEEF"/>
    <path opacity="0.2369" d="M342.055 359.928L339.236 362.747L343.089 363.782L342.055 359.928Z" fill="#00AEEF"/>
    <path opacity="0.5403" d="M354.693 358.609L350.833 357.574L351.868 361.428L354.693 358.609Z" fill="#00AEEF"/>
    <path opacity="0.9773" d="M373.757 363.714L369.897 362.68L370.931 366.54L373.757 363.714Z" fill="#00AEEF"/>
    <path opacity="0.2985" d="M290.237 362.686L286.177 366.745L291.719 368.233L290.237 362.686Z" fill="#00AEEF"/>
    <path opacity="0.5873" d="M303.583 362.08L298.041 360.598L299.523 366.139L303.583 362.08Z" fill="#00AEEF"/>
    <path opacity="0.993" d="M117.606 289.323L133.294 293.521L129.089 277.84L117.606 289.323Z" fill="#00AEEF"/>
    <path opacity="0.858" d="M9.55294 297.853L-6.12866 293.648L-1.92391 309.336L9.55294 297.853Z" fill="#00AEEF"/>
    <path opacity="0.6892" d="M5.8745 280.219L-5.6084 291.702L10.0793 295.906L5.8745 280.219Z" fill="#00AEEF"/>
    <path opacity="0.8338" d="M12.0274 295.381L23.5103 283.904L7.82874 279.699L12.0274 295.381Z" fill="#00AEEF"/>
    <path opacity="0.1079" d="M8.349 277.744L24.0306 281.949L19.8319 266.268L8.349 277.744Z" fill="#00AEEF"/>
    <path opacity="0.669" d="M21.78 265.74L25.9848 281.428L37.4616 269.945L21.78 265.74Z" fill="#00AEEF"/>
    <path opacity="0.733" d="M22.3064 263.793L37.988 267.992L33.7832 252.311L22.3064 263.793Z" fill="#00AEEF"/>
    <path opacity="0.2804" d="M39.9361 267.473L51.419 255.99L35.7374 251.791L39.9361 267.473Z" fill="#00AEEF"/>
    <path opacity="0.579" d="M0.707844 330.875L-14.9738 326.67L-10.769 342.352L0.707844 330.875Z" fill="#00AEEF"/>
    <path opacity="0.7366" d="M-2.97059 313.238L-14.4535 324.715L1.23416 328.92L-2.97059 313.238Z" fill="#00AEEF"/>
    <path opacity="0.4329" d="M14.6652 316.92L-1.02246 312.715L3.18229 328.402L14.6652 316.92Z" fill="#00AEEF"/>
    <path opacity="0.4593" d="M-0.496094 310.766L15.1855 314.971L10.9808 299.283L-0.496094 310.766Z" fill="#00AEEF"/>
    <path opacity="0.1017" d="M28.6165 302.966L12.9349 298.762L17.1397 314.443L28.6165 302.966Z" fill="#00AEEF"/>
    <path opacity="0.6415" d="M13.4552 296.807L29.1428 301.012L24.9381 285.33L13.4552 296.807Z" fill="#00AEEF"/>
    <path opacity="0.6229" d="M31.091 300.492L42.5739 289.009L26.8923 284.805L31.091 300.492Z" fill="#00AEEF"/>
    <path opacity="0.3292" d="M27.4126 282.858L43.0942 287.057L38.8955 271.375L27.4126 282.858Z" fill="#00AEEF"/>
    <path opacity="0.6057" d="M45.0483 286.535L56.5251 275.052L40.8435 270.854L45.0483 286.535Z" fill="#00AEEF"/>
    <path opacity="0.5601" d="M41.3639 268.899L57.0515 273.103L52.8468 257.422L41.3639 268.899Z" fill="#00AEEF"/>
    <path opacity="0.9896" d="M58.9996 272.576L70.4825 261.099L54.8009 256.895L58.9996 272.576Z" fill="#00AEEF"/>
    <path opacity="0.631" d="M5.82022 349.939L-9.86743 345.734L-5.66268 361.416L5.82022 349.939Z" fill="#00AEEF"/>
    <path opacity="0.9555" d="M6.34041 347.986L2.13566 332.305L-9.34119 343.782L6.34041 347.986Z" fill="#00AEEF"/>
    <path opacity="0.7957" d="M19.7714 335.982L4.08984 331.777L8.29459 347.465L19.7714 335.982Z" fill="#00AEEF"/>
    <path opacity="0.2219" d="M16.093 318.346L4.61011 329.829L20.2978 334.033L16.093 318.346Z" fill="#00AEEF"/>
    <path opacity="0.6223" d="M33.7288 322.023L18.0411 317.824L22.2459 333.506L33.7288 322.023Z" fill="#00AEEF"/>
    <path opacity="0.7109" d="M18.5675 315.871L34.2491 320.076L30.0444 304.395L18.5675 315.871Z" fill="#00AEEF"/>
    <path opacity="0.397" d="M36.2032 319.555L47.68 308.072L31.9984 303.867L36.2032 319.555Z" fill="#00AEEF"/>
    <path opacity="0.582" d="M32.5188 301.92L48.2064 306.119L44.0017 290.438L32.5188 301.92Z" fill="#00AEEF"/>
    <path opacity="0.9636" d="M50.1545 305.6L61.6374 294.117L45.9497 289.918L50.1545 305.6Z" fill="#00AEEF"/>
    <path opacity="0.8531" d="M46.4761 287.963L62.1577 292.168L57.959 276.48L46.4761 287.963Z" fill="#00AEEF"/>
    <path opacity="0.1637" d="M64.1119 291.643L75.5887 280.166L59.9071 275.961L64.1119 291.643Z" fill="#00AEEF"/>
    <path opacity="0.531" d="M60.4274 274.01L76.115 278.209L71.9103 262.527L60.4274 274.01Z" fill="#00AEEF"/>
    <path opacity="0.8844" d="M78.0632 277.689L89.5461 266.207L73.8645 262.008L78.0632 277.689Z" fill="#00AEEF"/>
    <path opacity="0.4457" d="M7.24791 351.367L-4.23499 362.844L11.4466 367.049L7.24791 351.367Z" fill="#00AEEF"/>
    <path opacity="0.3778" d="M24.8837 355.045L9.19604 350.84L13.4008 366.527L24.8837 355.045Z" fill="#00AEEF"/>
    <path opacity="0.2217" d="M21.1993 337.41L9.72241 348.893L25.404 353.098L21.1993 337.41Z" fill="#00AEEF"/>
    <path opacity="0.792" d="M38.8349 341.089L23.1533 336.891L27.3581 352.572L38.8349 341.089Z" fill="#00AEEF"/>
    <path opacity="0.5748" d="M35.1566 323.459L23.6737 334.936L39.3614 339.141L35.1566 323.459Z" fill="#00AEEF"/>
    <path opacity="0.9907" d="M52.7924 327.136L37.1047 322.932L41.3095 338.619L52.7924 327.136Z" fill="#00AEEF"/>
    <path opacity="0.4765" d="M37.6311 320.983L53.3127 325.182L49.108 309.5L37.6311 320.983Z" fill="#00AEEF"/>
    <path opacity="0.7096" d="M55.2668 324.662L66.7436 313.179L51.062 308.98L55.2668 324.662Z" fill="#00AEEF"/>
    <path opacity="0.9083" d="M51.5824 307.026L67.27 311.231L63.0653 295.543L51.5824 307.026Z" fill="#00AEEF"/>
    <path opacity="0.3814" d="M69.2181 310.705L80.701 299.228L65.0133 295.023L69.2181 310.705Z" fill="#00AEEF"/>
    <path opacity="0.4904" d="M65.5397 293.075L81.2213 297.273L77.0165 281.592L65.5397 293.075Z" fill="#00AEEF"/>
    <path opacity="0.178" d="M78.9707 281.066L83.1755 296.754L94.6523 285.271L78.9707 281.066Z" fill="#00AEEF"/>
    <path opacity="0.9907" d="M79.491 279.118L95.1786 283.322L90.9739 267.635L79.491 279.118Z" fill="#00AEEF"/>
    <path opacity="0.4786" d="M97.1267 282.795L108.61 271.318L92.928 267.113L97.1267 282.795Z" fill="#00AEEF"/>
    <path opacity="0.9682" d="M26.3115 356.473L14.8286 367.956L30.5102 372.154L26.3115 356.473Z" fill="#00AEEF"/>
    <path opacity="0.8934" d="M43.9472 360.152L28.2595 355.953L32.4643 371.635L43.9472 360.152Z" fill="#00AEEF"/>
    <path opacity="0.6211" d="M40.2627 342.521L28.7859 353.998L44.4675 358.203L40.2627 342.521Z" fill="#00AEEF"/>
    <path opacity="0.8319" d="M57.8985 346.201L42.2169 341.996L46.4156 357.678L57.8985 346.201Z" fill="#00AEEF"/>
    <path opacity="0.9845" d="M42.7372 340.047L58.4248 344.246L54.2201 328.564L42.7372 340.047Z" fill="#00AEEF"/>
    <path opacity="0.3311" d="M71.8559 332.244L56.1682 328.045L60.373 343.727L71.8559 332.244Z" fill="#00AEEF"/>
    <path opacity="0.9019" d="M56.6946 326.09L72.3762 330.295L68.1714 314.607L56.6946 326.09Z" fill="#00AEEF"/>
    <path opacity="0.262" d="M70.1256 314.086L74.3304 329.768L85.8072 318.291L70.1256 314.086Z" fill="#00AEEF"/>
    <path opacity="0.7769" d="M70.6459 312.139L86.3335 316.338L82.1288 300.656L70.6459 312.139Z" fill="#00AEEF"/>
    <path opacity="0.6849" d="M88.2817 315.817L99.7646 304.334L84.0769 300.129L88.2817 315.817Z" fill="#00AEEF"/>
    <path opacity="0.4" d="M84.6032 298.182L100.285 302.387L96.0861 286.699L84.6032 298.182Z" fill="#00AEEF"/>
    <path opacity="0.8658" d="M102.239 301.859L113.716 290.382L98.0342 286.178L102.239 301.859Z" fill="#00AEEF"/>
    <path opacity="0.8413" d="M114.242 288.428L110.037 272.746L98.5544 284.223L114.242 288.428Z" fill="#00AEEF"/>
    <path opacity="0.5732" d="M116.19 287.908L127.673 276.425L111.992 272.221L116.19 287.908Z" fill="#00AEEF"/>
    <path opacity="0.8638" d="M138.043 365.579L153.724 369.777L149.526 354.096L138.043 365.579Z" fill="#00AEEF"/>
    <path opacity="0.8053" d="M132.937 346.514L148.618 350.713L144.413 335.031L132.937 346.514Z" fill="#00AEEF"/>
    <path opacity="0.853" d="M132.41 348.463L136.615 364.151L148.098 352.668L132.41 348.463Z" fill="#00AEEF"/>
    <path opacity="0.7935" d="M118.979 360.465L134.661 364.67L130.462 348.988L118.979 360.465Z" fill="#00AEEF"/>
    <path opacity="0.6197" d="M118.459 362.42L122.658 378.102L134.141 366.619L118.459 362.42Z" fill="#00AEEF"/>
    <path opacity="0.8622" d="M105.022 374.424L120.71 378.629L116.505 362.941L105.022 374.424Z" fill="#00AEEF"/>
    <path opacity="0.2836" d="M127.824 327.452L143.506 331.65L139.307 315.969L127.824 327.452Z" fill="#00AEEF"/>
    <path opacity="0.9692" d="M127.304 329.398L131.503 345.086L142.986 333.603L127.304 329.398Z" fill="#00AEEF"/>
    <path opacity="0.5974" d="M113.873 341.403L129.555 345.607L125.35 329.926L113.873 341.403Z" fill="#00AEEF"/>
    <path opacity="0.8994" d="M117.552 359.039L129.034 347.556L113.347 343.357L117.552 359.039Z" fill="#00AEEF"/>
    <path opacity="0.2534" d="M99.9158 355.36L115.597 359.565L111.399 343.877L99.9158 355.36Z" fill="#00AEEF"/>
    <path opacity="0.3706" d="M103.594 372.996L115.077 361.513L99.3955 357.309L103.594 372.996Z" fill="#00AEEF"/>
    <path opacity="0.6871" d="M97.4414 357.834L85.9585 369.311L101.646 373.516L97.4414 357.834Z" fill="#00AEEF"/>
    <path opacity="0.363" d="M122.718 308.387L138.4 312.586L134.195 296.904L122.718 308.387Z" fill="#00AEEF"/>
    <path opacity="0.895" d="M126.397 326.024L137.88 314.541L122.192 310.336L126.397 326.024Z" fill="#00AEEF"/>
    <path opacity="0.5645" d="M108.761 322.34L124.449 326.545L120.244 310.863L108.761 322.34Z" fill="#00AEEF"/>
    <path opacity="0.7036" d="M112.439 339.975L123.922 328.498L108.241 324.293L112.439 339.975Z" fill="#00AEEF"/>
    <path opacity="0.3586" d="M94.8096 336.295L110.491 340.5L106.286 324.812L94.8096 336.295Z" fill="#00AEEF"/>
    <path opacity="0.1246" d="M98.488 353.932L109.971 342.449L94.2832 338.244L98.488 353.932Z" fill="#00AEEF"/>
    <path opacity="0.8292" d="M80.8522 350.248L96.5338 354.453L92.3351 338.771L80.8522 350.248Z" fill="#00AEEF"/>
    <path opacity="0.3337" d="M84.5306 367.883L96.0135 356.406L80.3319 352.201L84.5306 367.883Z" fill="#00AEEF"/>
    <path opacity="0.8019" d="M78.3777 352.723L66.8948 364.206L82.5825 368.41L78.3777 352.723Z" fill="#00AEEF"/>
    <path opacity="0.2548" d="M121.29 306.961L132.767 295.478L117.086 291.273L121.29 306.961Z" fill="#00AEEF"/>
    <path opacity="0.8548" d="M103.655 303.276L119.336 307.48L115.132 291.799L103.655 303.276Z" fill="#00AEEF"/>
    <path opacity="0.5136" d="M107.333 320.912L118.816 309.435L103.128 305.23L107.333 320.912Z" fill="#00AEEF"/>
    <path opacity="0.9903" d="M89.6973 317.233L105.385 321.438L101.18 305.75L89.6973 317.233Z" fill="#00AEEF"/>
    <path opacity="0.4454" d="M93.3757 334.869L104.859 323.386L89.177 319.182L93.3757 334.869Z" fill="#00AEEF"/>
    <path opacity="0.7367" d="M75.746 331.184L91.4276 335.389L87.2229 319.707L75.746 331.184Z" fill="#00AEEF"/>
    <path opacity="0.7393" d="M79.4245 348.818L90.9074 337.341L75.2197 333.137L79.4245 348.818Z" fill="#00AEEF"/>
    <path opacity="0.8088" d="M73.2716 333.658L61.7887 345.141L77.4703 349.346L73.2716 333.658Z" fill="#00AEEF"/>
    <path opacity="0.2643" d="M76.95 351.294L61.2684 347.096L65.4671 362.777L76.95 351.294Z" fill="#00AEEF"/>
    <path opacity="0.7507" d="M59.3143 347.617L47.8374 359.1L63.519 363.299L59.3143 347.617Z" fill="#00AEEF"/>
    <path opacity="0.1564" d="M62.9926 365.252L47.311 361.047L51.5158 376.728L62.9926 365.252Z" fill="#00AEEF"/>
    <path opacity="0.1552" d="M49.5616 377.254L45.3629 361.572L33.88 373.049L49.5616 377.254Z" fill="#00AEEF"/>
    <path opacity="0.7533" d="M29.7237 229.356L41.2066 217.873L25.5189 213.668L29.7237 229.356Z" fill="#00AEEF"/>
    <path opacity="0.7984" d="M30.6311 232.732L34.8359 248.42L46.3127 236.937L30.6311 232.732Z" fill="#00AEEF"/>
    <path opacity="0.7813" d="M31.1515 230.784L46.8391 234.982L42.6344 219.301L31.1515 230.784Z" fill="#00AEEF"/>
    <path opacity="0.9667" d="M48.7873 234.463L60.2702 222.98L44.5825 218.781L48.7873 234.463Z" fill="#00AEEF"/>
    <path opacity="0.7267" d="M55.3152 254.942L70.9968 259.147L66.792 243.459L55.3152 254.942Z" fill="#00AEEF"/>
    <path opacity="0.3596" d="M50.2029 235.877L65.8845 240.082L61.6858 224.395L50.2029 235.877Z" fill="#00AEEF"/>
    <path opacity="0.1528" d="M53.8813 253.514L65.3642 242.031L49.6826 237.832L53.8813 253.514Z" fill="#00AEEF"/>
    <path opacity="0.7854" d="M36.2516 249.834L51.9332 254.033L47.7284 238.352L36.2516 249.834Z" fill="#00AEEF"/>
    <path opacity="0.1848" d="M171.808 122.73L171.233 120.564L169.648 122.15L171.808 122.73Z" fill="#00AEEF"/>
    <path opacity="0.8358" d="M76.5083 97.2011L75.9275 95.0352L74.3424 96.6203L76.5083 97.2011Z" fill="#00AEEF"/>
    <path opacity="0.5351" d="M85.6801 92.4199L86.2609 94.5858L87.846 93.0007L85.6801 92.4199Z" fill="#00AEEF"/>
    <path opacity="0.1938" d="M95.5718 102.307L94.991 100.141L93.4059 101.726L95.5718 102.307Z" fill="#00AEEF"/>
    <path opacity="0.5451" d="M105.324 99.6932L106.91 98.1081L104.744 97.5273L105.324 99.6932Z" fill="#00AEEF"/>
    <path opacity="0.3" d="M114.635 107.418L114.055 105.252L112.469 106.837L114.635 107.418Z" fill="#00AEEF"/>
    <path opacity="0.5571" d="M124.388 104.807L125.973 103.221L123.807 102.641L124.388 104.807Z" fill="#00AEEF"/>
    <path opacity="0.791" d="M133.699 112.525L133.118 110.359L131.533 111.944L133.699 112.525Z" fill="#00AEEF"/>
    <path opacity="0.743" d="M143.452 109.912L145.037 108.327L142.871 107.746L143.452 109.912Z" fill="#00AEEF"/>
    <path opacity="0.1795" d="M152.763 117.633L152.182 115.473L150.597 117.058L152.763 117.633Z" fill="#00AEEF"/>
    <path opacity="0.9907" d="M162.515 115.017L164.1 113.438L161.934 112.857L162.515 115.017Z" fill="#00AEEF"/>
    <path opacity="0.418" d="M190.079 198.405L192.245 198.986L191.664 196.82L190.079 198.405Z" fill="#00AEEF"/>
    <path opacity="0.2608" d="M187.465 208.156L188.046 210.322L189.631 208.737L187.465 208.156Z" fill="#00AEEF"/>
    <path opacity="0.5989" d="M184.973 179.341L187.139 179.922L186.558 177.756L184.973 179.341Z" fill="#00AEEF"/>
    <path opacity="0.9067" d="M182.94 191.26L184.525 189.675L182.359 189.094L182.94 191.26Z" fill="#00AEEF"/>
    <path opacity="0.5667" d="M179.867 160.277L182.026 160.857L181.446 158.691L179.867 160.277Z" fill="#00AEEF"/>
    <path opacity="0.2024" d="M177.247 170.035L177.828 172.195L179.413 170.61L177.247 170.035Z" fill="#00AEEF"/>
    <path opacity="0.9978" d="M174.754 141.214L176.92 141.795L176.339 139.629L174.754 141.214Z" fill="#00AEEF"/>
    <path opacity="0.1112" d="M172.721 153.133L174.307 151.547L172.141 150.973L172.721 153.133Z" fill="#00AEEF"/>
    <path opacity="0.2512" d="M167.615 134.068L169.194 132.483L167.034 131.908L167.615 134.068Z" fill="#00AEEF"/>
    <path opacity="0.8051" d="M63.2649 111.866L62.2303 108.012L59.411 110.837L63.2649 111.866Z" fill="#00AEEF"/>
    <path opacity="0.7945" d="M72.0434 109.518L74.8687 106.693L71.0149 105.658L72.0434 109.518Z" fill="#00AEEF"/>
    <path opacity="0.9761" d="M82.3285 116.977L81.2939 113.123L78.4746 115.942L82.3285 116.977Z" fill="#00AEEF"/>
    <path opacity="0.2593" d="M91.113 114.623L93.9323 111.804L90.0785 110.77L91.113 114.623Z" fill="#00AEEF"/>
    <path opacity="0.9258" d="M101.392 122.084L100.357 118.23L97.5381 121.056L101.392 122.084Z" fill="#00AEEF"/>
    <path opacity="0.6568" d="M110.171 119.731L112.996 116.912L109.142 115.877L110.171 119.731Z" fill="#00AEEF"/>
    <path opacity="0.3825" d="M120.456 127.196L119.421 123.342L116.602 126.161L120.456 127.196Z" fill="#00AEEF"/>
    <path opacity="0.2443" d="M129.234 124.842L132.059 122.017L128.206 120.988L129.234 124.842Z" fill="#00AEEF"/>
    <path opacity="0.1699" d="M139.519 132.303L138.485 128.449L135.665 131.269L139.519 132.303Z" fill="#00AEEF"/>
    <path opacity="0.2122" d="M148.298 129.948L151.123 127.128L147.269 126.094L148.298 129.948Z" fill="#00AEEF"/>
    <path opacity="0.5649" d="M179.007 213.651L177.973 209.797L175.148 212.622L179.007 213.651Z" fill="#00AEEF"/>
    <path opacity="0.9003" d="M173.829 225.254L176.654 222.435L172.8 221.4L173.829 225.254Z" fill="#00AEEF"/>
    <path opacity="0.342" d="M170.041 193.558L173.895 194.586L172.861 190.732L170.041 193.558Z" fill="#00AEEF"/>
    <path opacity="0.5072" d="M168.722 206.19L171.542 203.37L167.688 202.336L168.722 206.19Z" fill="#00AEEF"/>
    <path opacity="0.3921" d="M164.935 174.495L168.789 175.524L167.754 171.67L164.935 174.495Z" fill="#00AEEF"/>
    <path opacity="0.3779" d="M163.616 187.127L166.436 184.308L162.582 183.273L163.616 187.127Z" fill="#00AEEF"/>
    <path opacity="0.7277" d="M159.823 155.431L163.677 156.459L162.648 152.605L159.823 155.431Z" fill="#00AEEF"/>
    <path opacity="0.3286" d="M161.329 165.245L157.469 164.211L158.504 168.065L161.329 165.245Z" fill="#00AEEF"/>
    <path opacity="0.7911" d="M154.717 136.368L158.571 137.397L157.536 133.543L154.717 136.368Z" fill="#00AEEF"/>
    <path opacity="0.8952" d="M153.398 149L156.217 146.181L152.363 145.146L153.398 149Z" fill="#00AEEF"/>
    <path opacity="0.7033" d="M50.0275 126.536L48.5392 120.994L44.4796 125.048L50.0275 126.536Z" fill="#00AEEF"/>
    <path opacity="0.5994" d="M57.832 124.444L61.8915 120.391L56.3437 118.902L57.832 124.444Z" fill="#00AEEF"/>
    <path opacity="0.7045" d="M69.0911 131.643L67.6028 126.102L63.5432 130.161L69.0911 131.643Z" fill="#00AEEF"/>
    <path opacity="0.2543" d="M76.8955 129.556L80.9551 125.496L75.4072 124.008L76.8955 129.556Z" fill="#00AEEF"/>
    <path opacity="0.1373" d="M88.1545 136.755L86.6662 131.207L82.6067 135.267L88.1545 136.755Z" fill="#00AEEF"/>
    <path opacity="0.5463" d="M95.959 134.663L100.019 130.603L94.4707 129.121L95.959 134.663Z" fill="#00AEEF"/>
    <path opacity="0.4668" d="M107.218 141.862L105.73 136.32L101.67 140.38L107.218 141.862Z" fill="#00AEEF"/>
    <path opacity="0.43" d="M115.023 139.774L119.082 135.715L113.534 134.227L115.023 139.774Z" fill="#00AEEF"/>
    <path opacity="0.8694" d="M124.793 141.426L120.734 145.485L126.282 146.974L124.793 141.426Z" fill="#00AEEF"/>
    <path opacity="0.1322" d="M134.086 144.882L138.14 140.822L132.598 139.34L134.086 144.882Z" fill="#00AEEF"/>
    <path opacity="0.5713" d="M160.222 226.833L165.764 228.321L164.282 222.773L160.222 226.833Z" fill="#00AEEF"/>
    <path opacity="0.6348" d="M159.617 240.185L163.677 236.125L158.129 234.637L159.617 240.185Z" fill="#00AEEF"/>
    <path opacity="0.9372" d="M160.658 209.259L159.169 203.711L155.11 207.771L160.658 209.259Z" fill="#00AEEF"/>
    <path opacity="0.8296" d="M154.505 221.122L158.565 217.063L153.023 215.574L154.505 221.122Z" fill="#00AEEF"/>
    <path opacity="0.2369" d="M150.004 188.706L155.545 190.194L154.063 184.652L150.004 188.706Z" fill="#00AEEF"/>
    <path opacity="0.8216" d="M149.399 202.057L153.458 197.998L147.91 196.516L149.399 202.057Z" fill="#00AEEF"/>
    <path opacity="0.3532" d="M144.891 169.643L150.439 171.132L148.951 165.59L144.891 169.643Z" fill="#00AEEF"/>
    <path opacity="0.6347" d="M144.286 182.995L148.346 178.935L142.804 177.453L144.286 182.995Z" fill="#00AEEF"/>
    <path opacity="0.736" d="M139.785 150.581L145.333 152.069L143.845 146.527L139.785 150.581Z" fill="#00AEEF"/>
    <path opacity="0.6221" d="M139.18 163.932L143.24 159.873L137.692 158.391L139.18 163.932Z" fill="#00AEEF"/>
    <path opacity="0.5059" d="M29.5482 139.266L36.784 141.208L34.848 133.973L29.5482 139.266Z" fill="#00AEEF"/>
    <path opacity="0.838" d="M43.6145 139.374L48.9082 134.081L41.6785 132.139L43.6145 139.374Z" fill="#00AEEF"/>
    <path opacity="0.2748" d="M48.6118 144.378L55.8476 146.314L53.9116 139.078L48.6118 144.378Z" fill="#00AEEF"/>
    <path opacity="0.691" d="M60.7419 137.25L62.6779 144.486L67.9717 139.186L60.7419 137.25Z" fill="#00AEEF"/>
    <path opacity="0.1736" d="M74.9111 151.427L72.9751 144.191L67.6753 149.485L74.9111 151.427Z" fill="#00AEEF"/>
    <path opacity="0.9425" d="M79.8055 142.357L81.7415 149.593L87.0353 144.299L79.8055 142.357Z" fill="#00AEEF"/>
    <path opacity="0.7562" d="M93.9747 156.533L92.0387 149.297L86.7389 154.591L93.9747 156.533Z" fill="#00AEEF"/>
    <path opacity="0.2536" d="M100.805 154.698L106.099 149.405L98.863 147.469L100.805 154.698Z" fill="#00AEEF"/>
    <path opacity="0.7245" d="M105.802 159.702L113.038 161.638L111.102 154.408L105.802 159.702Z" fill="#00AEEF"/>
    <path opacity="0.3783" d="M119.869 159.812L125.162 154.518L117.927 152.576L119.869 159.812Z" fill="#00AEEF"/>
    <path opacity="0.8476" d="M145.291 241.052L152.527 242.994L150.585 235.758L145.291 241.052Z" fill="#00AEEF"/>
    <path opacity="0.9445" d="M143.458 247.881L145.4 255.117L150.693 249.817L143.458 247.881Z" fill="#00AEEF"/>
    <path opacity="0.6112" d="M147.414 223.929L145.478 216.693L140.179 221.987L147.414 223.929Z" fill="#00AEEF"/>
    <path opacity="0.7993" d="M140.293 236.054L145.587 230.754L138.351 228.818L140.293 236.054Z" fill="#00AEEF"/>
    <path opacity="0.4676" d="M142.308 204.865L140.366 197.629L135.072 202.923L142.308 204.865Z" fill="#00AEEF"/>
    <path opacity="0.9966" d="M135.181 216.99L140.475 211.69L133.245 209.754L135.181 216.99Z" fill="#00AEEF"/>
    <path opacity="0.5611" d="M129.966 183.86L137.196 185.802L135.26 178.566L129.966 183.86Z" fill="#00AEEF"/>
    <path opacity="0.1789" d="M128.133 190.691L130.075 197.927L135.369 192.633L128.133 190.691Z" fill="#00AEEF"/>
    <path opacity="0.336" d="M124.854 164.798L132.09 166.74L130.154 159.504L124.854 164.798Z" fill="#00AEEF"/>
    <path opacity="0.2822" d="M123.027 171.627L124.963 178.863L130.263 173.569L123.027 171.627Z" fill="#00AEEF"/>
    <path opacity="0.3941" d="M14.6229 153.483L23.5467 155.873L21.1509 146.949L14.6229 153.483Z" fill="#00AEEF"/>
    <path opacity="0.9664" d="M27.0072 145.383L29.397 154.307L35.931 147.773L27.0072 145.383Z" fill="#00AEEF"/>
    <path opacity="0.2216" d="M33.6864 158.59L42.6102 160.986L40.2144 152.062L33.6864 158.59Z" fill="#00AEEF"/>
    <path opacity="0.4647" d="M46.0708 150.488L48.4605 159.418L54.9946 152.884L46.0708 150.488Z" fill="#00AEEF"/>
    <path opacity="0.3457" d="M52.75 163.702L61.6737 166.092L59.278 157.168L52.75 163.702Z" fill="#00AEEF"/>
    <path opacity="0.493" d="M67.524 164.525L74.058 157.991L65.1343 155.602L67.524 164.525Z" fill="#00AEEF"/>
    <path opacity="0.5394" d="M71.8075 168.807L80.7373 171.197L78.3415 162.273L71.8075 168.807Z" fill="#00AEEF"/>
    <path opacity="0.8898" d="M86.5876 169.631L93.1216 163.103L84.1979 160.707L86.5876 169.631Z" fill="#00AEEF"/>
    <path opacity="0.1151" d="M90.871 173.921L99.8008 176.31L97.405 167.387L90.871 173.921Z" fill="#00AEEF"/>
    <path opacity="0.4202" d="M103.261 165.82L105.651 174.744L112.185 168.21L103.261 165.82Z" fill="#00AEEF"/>
    <path opacity="0.9307" d="M130.359 255.268L139.283 257.658L136.893 248.734L130.359 255.268Z" fill="#00AEEF"/>
    <path opacity="0.641" d="M131.182 270.049L137.716 263.515L128.792 261.119L131.182 270.049Z" fill="#00AEEF"/>
    <path opacity="0.8302" d="M125.253 236.206L134.177 238.596L131.781 229.672L125.253 236.206Z" fill="#00AEEF"/>
    <path opacity="0.2939" d="M123.68 242.061L126.076 250.984L132.61 244.45L123.68 242.061Z" fill="#00AEEF"/>
    <path opacity="0.8955" d="M120.141 217.141L129.065 219.531L126.675 210.607L120.141 217.141Z" fill="#00AEEF"/>
    <path opacity="0.9191" d="M118.574 222.992L120.964 231.922L127.498 225.388L118.574 222.992Z" fill="#00AEEF"/>
    <path opacity="0.3232" d="M115.035 198.079L123.958 200.469L121.569 191.545L115.035 198.079Z" fill="#00AEEF"/>
    <path opacity="0.2861" d="M115.858 212.857L122.392 206.323L113.468 203.934L115.858 212.857Z" fill="#00AEEF"/>
    <path opacity="0.6258" d="M109.922 179.014L118.846 181.404L116.456 172.48L109.922 179.014Z" fill="#00AEEF"/>
    <path opacity="0.5223" d="M110.745 193.795L117.279 187.261L108.356 184.871L110.745 193.795Z" fill="#00AEEF"/>
    <path opacity="0.48" d="M12.3359 158.621L15.1794 169.239L22.9537 161.471L12.3359 158.621Z" fill="#00AEEF"/>
    <path opacity="0.4848" d="M18.755 172.807L29.3667 175.651L26.5232 165.039L18.755 172.807Z" fill="#00AEEF"/>
    <path opacity="0.4342" d="M31.3995 163.732L34.243 174.344L42.0173 166.576L31.3995 163.732Z" fill="#00AEEF"/>
    <path opacity="0.1553" d="M37.8186 177.919L48.4303 180.762L45.5868 170.145L37.8186 177.919Z" fill="#00AEEF"/>
    <path opacity="0.1238" d="M53.3066 179.456L61.0809 171.681L50.4631 168.838L53.3066 179.456Z" fill="#00AEEF"/>
    <path opacity="0.1537" d="M56.8821 183.026L67.4938 185.87L64.6503 175.258L56.8821 183.026Z" fill="#00AEEF"/>
    <path opacity="0.3295" d="M72.3701 184.561L80.1444 176.793L69.5266 173.949L72.3701 184.561Z" fill="#00AEEF"/>
    <path opacity="0.886" d="M75.9457 188.131L86.5574 190.981L83.7139 180.363L75.9457 188.131Z" fill="#00AEEF"/>
    <path opacity="0.4451" d="M91.4336 189.668L99.2078 181.9L88.5901 179.057L91.4336 189.668Z" fill="#00AEEF"/>
    <path opacity="0.7279" d="M115.428 269.485L126.046 272.329L123.196 261.711L115.428 269.485Z" fill="#00AEEF"/>
    <path opacity="0.1973" d="M110.322 250.423L120.933 253.266L118.09 242.648L110.322 250.423Z" fill="#00AEEF"/>
    <path opacity="0.815" d="M111.859 265.911L119.627 258.142L109.015 255.299L111.859 265.911Z" fill="#00AEEF"/>
    <path opacity="0.3271" d="M105.209 231.36L115.827 234.204L112.984 223.586L105.209 231.36Z" fill="#00AEEF"/>
    <path opacity="0.8478" d="M106.752 246.846L114.52 239.078L103.903 236.234L106.752 246.846Z" fill="#00AEEF"/>
    <path opacity="0.573" d="M100.103 212.296L110.715 215.139L107.872 204.527L100.103 212.296Z" fill="#00AEEF"/>
    <path opacity="0.1485" d="M109.408 220.015L98.7965 217.172L101.64 227.784L109.408 220.015Z" fill="#00AEEF"/>
    <path opacity="0.2572" d="M94.9971 193.231L105.609 196.075L102.765 185.463L94.9971 193.231Z" fill="#00AEEF"/>
    <path opacity="0.2665" d="M96.5338 208.719L104.302 200.951L93.6903 198.107L96.5338 208.719Z" fill="#00AEEF"/>
    <path opacity="0.6395" d="M20.0316 189.274L29.034 180.266L16.7344 176.969L20.0316 189.274Z" fill="#00AEEF"/>
    <path opacity="0.1664" d="M22.8872 192.131L35.1929 195.429L31.8957 183.129L22.8872 192.131Z" fill="#00AEEF"/>
    <path opacity="0.7802" d="M39.0951 194.388L48.0975 185.379L35.7979 182.082L39.0951 194.388Z" fill="#00AEEF"/>
    <path opacity="0.6968" d="M41.9507 197.243L54.2564 200.54L50.9591 188.234L41.9507 197.243Z" fill="#00AEEF"/>
    <path opacity="0.5225" d="M67.1611 190.485L54.8615 187.188L58.1587 199.493L67.1611 190.485Z" fill="#00AEEF"/>
    <path opacity="0.7424" d="M73.32 205.646L70.0227 193.34L61.0143 202.348L73.32 205.646Z" fill="#00AEEF"/>
    <path opacity="0.8916" d="M86.2246 195.598L73.9249 192.301L77.2222 204.6L86.2246 195.598Z" fill="#00AEEF"/>
    <path opacity="0.7431" d="M95.3904 264.635L107.696 267.932L104.399 255.633L95.3904 264.635Z" fill="#00AEEF"/>
    <path opacity="0.3444" d="M102.584 248.868L99.2866 236.568L90.2842 245.571L102.584 248.868Z" fill="#00AEEF"/>
    <path opacity="0.7309" d="M92.5348 261.778L101.537 252.776L89.2375 249.473L92.5348 261.778Z" fill="#00AEEF"/>
    <path opacity="0.625" d="M97.4777 229.81L94.1804 217.504L85.172 226.506L97.4777 229.81Z" fill="#00AEEF"/>
    <path opacity="0.4735" d="M87.4225 242.716L96.4309 233.713L84.1252 230.416L87.4225 242.716Z" fill="#00AEEF"/>
    <path opacity="0.2416" d="M92.3653 210.747L89.0741 198.441L80.0657 207.45L92.3653 210.747Z" fill="#00AEEF"/>
    <path opacity="0.8603" d="M82.3163 223.651L91.3247 214.649L79.019 211.352L82.3163 223.651Z" fill="#00AEEF"/>
    <path opacity="0.7393" d="M21.1266 195.318L24.8776 209.312L35.1202 199.069L21.1266 195.318Z" fill="#00AEEF"/>
    <path opacity="0.862" d="M27.0193 211.46L41.0129 215.205L37.2619 201.211L27.0193 211.46Z" fill="#00AEEF"/>
    <path opacity="0.6606" d="M40.1902 200.432L43.9412 214.425L54.1838 204.183L40.1902 200.432Z" fill="#00AEEF"/>
    <path opacity="0.2517" d="M60.0765 220.318L56.3255 206.324L46.0829 216.567L60.0765 220.318Z" fill="#00AEEF"/>
    <path opacity="0.6037" d="M63.0047 219.533L73.2473 209.29L59.2537 205.539L63.0047 219.533Z" fill="#00AEEF"/>
    <path opacity="0.4828" d="M75.3528 259.788L89.3464 263.539L85.5954 249.545L75.3528 259.788Z" fill="#00AEEF"/>
    <path opacity="0.3053" d="M70.2405 240.723L84.2341 244.474L80.4831 230.48L70.2405 240.723Z" fill="#00AEEF"/>
    <path opacity="0.7265" d="M73.2111 257.646L83.4537 247.403L69.4601 243.652L73.2111 257.646Z" fill="#00AEEF"/>
    <path opacity="0.9167" d="M68.0988 238.583L78.3414 228.341L64.3478 224.59L68.0988 238.583Z" fill="#00AEEF"/>
    <path opacity="0.8366" d="M79.1279 225.412L75.3769 211.418L65.1343 221.661L79.1279 225.412Z" fill="#00AEEF"/>
    <path opacity="0.5565" d="M50.3844 -0.283203L48.7993 1.3019L50.9652 1.8827L50.3844 -0.283203Z" fill="#00AEEF"/>
    <path opacity="0.3111" d="M69.2302 77.5558L71.3961 78.1366L70.8153 75.9707L69.2302 77.5558Z" fill="#00AEEF"/>
    <path opacity="0.2149" d="M66.6166 87.3145L67.1974 89.4743L68.7825 87.8892L66.6166 87.3145Z" fill="#00AEEF"/>
    <path opacity="0.1159" d="M64.124 58.4933L66.2899 59.0741L65.7091 56.9082L64.124 58.4933Z" fill="#00AEEF"/>
    <path opacity="0.2324" d="M62.0912 70.4118L63.6763 68.8328L61.5104 68.252L62.0912 70.4118Z" fill="#00AEEF"/>
    <path opacity="0.4132" d="M60.6029 37.8438L59.0178 39.4288L61.1776 40.0096L60.6029 37.8438Z" fill="#00AEEF"/>
    <path opacity="0.505" d="M58.564 49.7683L56.4042 49.1875L56.9789 51.3473L58.564 49.7683Z" fill="#00AEEF"/>
    <path opacity="0.2224" d="M55.4906 18.7793L53.9055 20.3644L56.0714 20.9452L55.4906 18.7793Z" fill="#00AEEF"/>
    <path opacity="0.8703" d="M53.4578 30.7038L51.2919 30.123L51.8727 32.2829L53.4578 30.7038Z" fill="#00AEEF"/>
    <path opacity="0.2385" d="M48.3517 11.6413L46.1858 11.0605L46.7666 13.2204L48.3517 11.6413Z" fill="#00AEEF"/>
    <path opacity="0.3813" d="M11.2107 1.17518L7.35681 0.140625L8.39136 3.99448L11.2107 1.17518Z" fill="#00AEEF"/>
    <path opacity="0.9863" d="M17.6357 7.59961L14.8164 10.4189L18.6703 11.4535L17.6357 7.59961Z" fill="#00AEEF"/>
    <path opacity="0.6108" d="M30.2741 6.28064L26.4203 5.24609L27.4548 9.09994L30.2741 6.28064Z" fill="#00AEEF"/>
    <path opacity="0.6461" d="M54.3048 91.7726L58.1587 92.8011L57.1241 88.9473L54.3048 91.7726Z" fill="#00AEEF"/>
    <path opacity="0.386" d="M52.9859 104.407L55.8052 101.587L51.9514 100.553L52.9859 104.407Z" fill="#00AEEF"/>
    <path opacity="0.2013" d="M49.1925 72.7101L53.0464 73.7447L52.0179 69.8848L49.1925 72.7101Z" fill="#00AEEF"/>
    <path opacity="0.7241" d="M47.8737 85.3421L50.699 82.5228L46.8391 81.4883L47.8737 85.3421Z" fill="#00AEEF"/>
    <path opacity="0.385" d="M46.9056 50.8203L44.0863 53.6457L47.9402 54.6742L46.9056 50.8203Z" fill="#00AEEF"/>
    <path opacity="0.1139" d="M41.7329 62.4238L42.7675 66.2777L45.5868 63.4584L41.7329 62.4238Z" fill="#00AEEF"/>
    <path opacity="0.8185" d="M41.7995 31.7578L38.9741 34.5832L42.834 35.6177L41.7995 31.7578Z" fill="#00AEEF"/>
    <path opacity="0.8435" d="M36.6267 43.3613L37.6552 47.2152L40.4806 44.3959L36.6267 43.3613Z" fill="#00AEEF"/>
    <path opacity="0.1262" d="M36.6872 12.6953L33.8679 15.5207L37.7218 16.5552L36.6872 12.6953Z" fill="#00AEEF"/>
    <path opacity="0.4399" d="M31.5144 24.2969L32.549 28.1507L35.3683 25.3314L31.5144 24.2969Z" fill="#00AEEF"/>
    <path opacity="0.397" d="M3.94456 20.5781L-0.11499 24.6377L5.43286 26.126L3.94456 20.5781Z" fill="#00AEEF"/>
    <path opacity="0.6213" d="M13.2374 24.0301L17.297 19.9705L11.7491 18.4883L13.2374 24.0301Z" fill="#00AEEF"/>
    <path opacity="0.8926" d="M44.9152 107.473L43.433 101.932L39.3734 105.985L44.9152 107.473Z" fill="#00AEEF"/>
    <path opacity="0.8425" d="M38.7685 119.339L42.828 115.279L37.2802 113.797L38.7685 119.339Z" fill="#00AEEF"/>
    <path opacity="0.8563" d="M39.809 88.409L38.3207 82.8672L34.2611 86.9267L39.809 88.409Z" fill="#00AEEF"/>
    <path opacity="0.9943" d="M33.6562 100.272L37.7158 96.2127L32.174 94.7305L33.6562 100.272Z" fill="#00AEEF"/>
    <path opacity="0.485" d="M34.6968 69.3465L33.2146 63.8047L29.155 67.8642L34.6968 69.3465Z" fill="#00AEEF"/>
    <path opacity="0.3081" d="M28.5499 81.2098L32.6095 77.1502L27.0616 75.668L28.5499 81.2098Z" fill="#00AEEF"/>
    <path opacity="0.6127" d="M24.0488 48.7998L29.5906 50.282L28.1023 44.7402L24.0488 48.7998Z" fill="#00AEEF"/>
    <path opacity="0.6919" d="M23.4437 62.1473L27.4972 58.0877L21.9554 56.6055L23.4437 62.1473Z" fill="#00AEEF"/>
    <path opacity="0.9548" d="M22.9961 25.6777L18.9365 29.7373L24.4844 31.2195L22.9961 25.6777Z" fill="#00AEEF"/>
    <path opacity="0.778" d="M18.3315 43.0828L22.391 39.0233L16.8492 37.541L18.3315 43.0828Z" fill="#00AEEF"/>
    <path opacity="0.467" d="M-0.980137 38.9624L4.31361 33.6686L-2.91614 31.7266L-0.980137 38.9624Z" fill="#00AEEF"/>
    <path opacity="0.9607" d="M31.6778 122.144L29.7358 114.908L24.442 120.202L31.6778 122.144Z" fill="#00AEEF"/>
    <path opacity="0.8375" d="M24.5509 134.269L29.8446 128.975L22.6149 127.033L24.5509 134.269Z" fill="#00AEEF"/>
    <path opacity="0.146" d="M19.3358 101.138L26.5656 103.08L24.6296 95.8438L19.3358 101.138Z" fill="#00AEEF"/>
    <path opacity="0.5116" d="M17.5027 107.969L19.4447 115.205L24.7385 109.911L17.5027 107.969Z" fill="#00AEEF"/>
    <path opacity="0.6788" d="M14.2236 82.075L21.4594 84.017L19.5174 76.7812L14.2236 82.075Z" fill="#00AEEF"/>
    <path opacity="0.6173" d="M12.3965 88.9062L14.3325 96.1421L19.6323 90.8483L12.3965 88.9062Z" fill="#00AEEF"/>
    <path opacity="0.995" d="M16.3472 64.9545L14.4112 57.7188L9.11743 63.0125L16.3472 64.9545Z" fill="#00AEEF"/>
    <path opacity="0.9506" d="M9.22623 77.0776L14.52 71.7838L7.28418 69.8418L9.22623 77.0776Z" fill="#00AEEF"/>
    <path opacity="0.6909" d="M4.00513 43.948L11.2409 45.8901L9.30493 38.6543L4.00513 43.948Z" fill="#00AEEF"/>
    <path opacity="0.2854" d="M2.17798 50.7773L4.11398 58.0131L9.41378 52.7194L2.17798 50.7773Z" fill="#00AEEF"/>
    <path opacity="0.5614" d="M9.51062 134.421L18.4344 136.81L16.0446 127.887L9.51062 134.421Z" fill="#00AEEF"/>
    <path opacity="0.1481" d="M16.8675 142.665L7.94373 140.275L10.3335 149.199L16.8675 142.665Z" fill="#00AEEF"/>
    <path opacity="0.1689" d="M4.40442 115.356L13.3282 117.746L10.9384 108.822L4.40442 115.356Z" fill="#00AEEF"/>
    <path opacity="0.8364" d="M5.22715 130.137L11.7612 123.603L2.8374 121.213L5.22715 130.137Z" fill="#00AEEF"/>
    <path opacity="0.8868" d="M-0.707886 96.2918L8.21586 98.6816L5.82611 89.7578L-0.707886 96.2918Z" fill="#00AEEF"/>
    <path opacity="0.642" d="M-2.27478 102.148L0.11497 111.072L6.64897 104.538L-2.27478 102.148Z" fill="#00AEEF"/>
    <path opacity="0.9687" d="M-5.81396 77.2293L3.10979 79.6191L0.720035 70.6953L-5.81396 77.2293Z" fill="#00AEEF"/>
    <path opacity="0.3449" d="M-4.99123 92.0097L1.54277 85.4757L-7.38098 83.0859L-4.99123 92.0097Z" fill="#00AEEF"/>
    <path opacity="0.9579" d="M-5.42078 148.637L5.19697 151.481L2.35347 140.869L-5.42078 148.637Z" fill="#00AEEF"/>
    <path opacity="0.8623" d="M-10.527 129.573L0.0847216 132.416L-2.75878 121.805L-10.527 129.573Z" fill="#00AEEF"/>
    <path opacity="0.782" d="M12.4449 172.68L8.2401 156.992L-3.2428 168.475L12.4449 172.68Z" fill="#00AEEF"/>
    <path opacity="0.2605" d="M-4.65848 167.061L6.82442 155.578L-8.85718 151.379L-4.65848 167.061Z" fill="#00AEEF"/>
    <path opacity="0.4136" d="M17.1941 244.729L32.8757 248.928L28.677 233.246L17.1941 244.729Z" fill="#00AEEF"/>
    <path opacity="0.8583" d="M20.8725 262.365L32.3554 250.882L16.6738 246.678L20.8725 262.365Z" fill="#00AEEF"/>
    <path opacity="0.3517" d="M3.2428 258.68L18.9244 262.885L14.7196 247.203L3.2428 258.68Z" fill="#00AEEF"/>
    <path opacity="0.9763" d="M2.71643 260.635L6.92118 276.316L18.398 264.84L2.71643 260.635Z" fill="#00AEEF"/>
    <path opacity="0.4736" d="M-10.7145 272.637L4.96712 276.842L0.768422 261.154L-10.7145 272.637Z" fill="#00AEEF"/>
    <path opacity="0.9185" d="M-7.03616 290.274L4.44674 278.791L-11.2349 274.586L-7.03616 290.274Z" fill="#00AEEF"/>
    <path opacity="0.2804" d="M12.0879 225.667L27.7695 229.871L23.5647 214.184L12.0879 225.667Z" fill="#00AEEF"/>
    <path opacity="0.6409" d="M11.5615 227.613L15.7663 243.301L27.2492 231.818L11.5615 227.613Z" fill="#00AEEF"/>
    <path opacity="0.4994" d="M-1.86938 239.617L13.8122 243.822L9.61351 228.141L-1.86938 239.617Z" fill="#00AEEF"/>
    <path opacity="0.7433" d="M1.80893 257.254L13.2918 245.777L-2.38977 241.572L1.80893 257.254Z" fill="#00AEEF"/>
    <path opacity="0.8946" d="M6.97571 206.602L22.6634 210.807L18.4586 195.119L6.97571 206.602Z" fill="#00AEEF"/>
    <path opacity="0.2378" d="M10.6601 224.238L22.1369 212.756L6.45532 208.551L10.6601 224.238Z" fill="#00AEEF"/>
    <path opacity="0.7065" d="M-6.97559 220.555L8.70601 224.76L4.50126 209.078L-6.97559 220.555Z" fill="#00AEEF"/>
    <path opacity="0.4205" d="M-7.50195 222.508L-3.2972 238.189L8.1857 226.713L-7.50195 222.508Z" fill="#00AEEF"/>
    <path opacity="0.5682" d="M1.86951 187.538L17.5511 191.742L13.3464 176.055L1.86951 187.538Z" fill="#00AEEF"/>
    <path opacity="0.1794" d="M1.34314 189.488L5.54789 205.176L17.0308 193.693L1.34314 189.488Z" fill="#00AEEF"/>
    <path opacity="0.5061" d="M-12.0879 201.491L3.59976 205.695L-0.604992 190.014L-12.0879 201.491Z" fill="#00AEEF"/>
    <path opacity="0.1016" d="M-8.4034 219.125L3.07344 207.648L-12.6082 203.443L-8.4034 219.125Z" fill="#00AEEF"/>
    <path opacity="0.2064" d="M0.441688 186.111L11.9185 174.629L-3.76306 170.424L0.441688 186.111Z" fill="#00AEEF"/>
    <path opacity="0.27" d="M246.241 31.2968L247.826 29.7117L245.66 29.1309L246.241 31.2968Z" fill="#00AEEF"/>
    <path opacity="0.5404" d="M272.432 43.5382L274.597 44.119L274.017 41.9531L272.432 43.5382Z" fill="#00AEEF"/>
    <path opacity="0.5419" d="M265.292 36.3903L266.878 34.8052L264.712 34.2305L265.292 36.3903Z" fill="#00AEEF"/>
    <path opacity="0.3384" d="M255.534 39.0056L254.953 36.8457L253.368 38.4308L255.534 39.0056Z" fill="#00AEEF"/>
    <path opacity="0.5447" d="M241.129 12.2343L242.714 10.6492L240.548 10.0684L241.129 12.2343Z" fill="#00AEEF"/>
    <path opacity="0.3754" d="M245.328 0.896369L244.747 -1.26953L243.162 0.315569L245.328 0.896369Z" fill="#00AEEF"/>
    <path opacity="0.3165" d="M250.44 19.9548L249.859 17.7949L248.274 19.38L250.44 19.9548Z" fill="#00AEEF"/>
    <path opacity="0.5184" d="M278.984 23.4144L281.803 20.5951L277.949 19.5605L278.984 23.4144Z" fill="#00AEEF"/>
    <path opacity="0.7833" d="M270.205 25.7679L269.171 21.9141L266.345 24.7334L270.205 25.7679Z" fill="#00AEEF"/>
    <path opacity="0.2366" d="M259.932 18.3206L262.752 15.4953L258.898 14.4668L259.932 18.3206Z" fill="#00AEEF"/>
    <path opacity="0.4393" d="M261.251 5.68258L265.105 6.71713L264.07 2.86328L261.251 5.68258Z" fill="#00AEEF"/>
    <path opacity="0.201" d="M273.623 5.33672L277.683 1.28322L272.141 -0.205078L273.623 5.33672Z" fill="#00AEEF"/>
    <path opacity="0.5805" d="M67.4152 16.7585L65.2493 16.1777L65.8301 18.3376L67.4152 16.7585Z" fill="#00AEEF"/>
    <path opacity="0.3208" d="M69.448 4.83398L67.8629 6.41908L70.0288 6.99988L69.448 4.83398Z" fill="#00AEEF"/>
    <path opacity="0.529" d="M81.3724 2.80346L79.2065 2.22266L79.7873 4.38856L81.3724 2.80346Z" fill="#00AEEF"/>
    <path opacity="0.269" d="M72.5274 35.8169L70.3615 35.2422L70.9423 37.402L72.5274 35.8169Z" fill="#00AEEF"/>
    <path opacity="0.8777" d="M74.5602 23.8984L72.9751 25.4835L75.141 26.0643L74.5602 23.8984Z" fill="#00AEEF"/>
    <path opacity="0.3155" d="M86.4788 21.866L84.3129 21.2852L84.8937 23.4511L86.4788 21.866Z" fill="#00AEEF"/>
    <path opacity="0.7132" d="M88.5115 9.94727L86.9264 11.5263L89.0923 12.1071L88.5115 9.94727Z" fill="#00AEEF"/>
    <path opacity="0.159" d="M100.436 7.90873L98.2701 7.33398L98.8509 9.49383L100.436 7.90873Z" fill="#00AEEF"/>
    <path opacity="0.8217" d="M77.6336 54.8814L75.4677 54.3066L76.0485 56.4665L77.6336 54.8814Z" fill="#00AEEF"/>
    <path opacity="0.8883" d="M78.0813 44.548L80.2472 45.1288L79.6664 42.9629L78.0813 44.548Z" fill="#00AEEF"/>
    <path opacity="0.2955" d="M91.5909 40.9285L89.425 40.3477L90.0059 42.5136L91.5909 40.9285Z" fill="#00AEEF"/>
    <path opacity="0.4788" d="M92.0387 30.589L94.2046 31.1698L93.6238 29.0039L92.0387 30.589Z" fill="#00AEEF"/>
    <path opacity="0.9645" d="M103.957 28.5565L105.542 26.9714L103.376 26.3906L103.957 28.5565Z" fill="#00AEEF"/>
    <path opacity="0.5567" d="M105.99 16.6398L108.156 17.2206L107.575 15.0547L105.99 16.6398Z" fill="#00AEEF"/>
    <path opacity="0.792" d="M117.915 14.6054L119.5 13.0203L117.334 12.4395L117.915 14.6054Z" fill="#00AEEF"/>
    <path opacity="0.2062" d="M119.947 2.6808L122.113 3.2616L121.532 1.0957L119.947 2.6808Z" fill="#00AEEF"/>
    <path opacity="0.8399" d="M131.866 0.648322L133.451 -0.936778L131.285 -1.51758L131.866 0.648322Z" fill="#00AEEF"/>
    <path opacity="0.659" d="M81.1547 75.529L82.7398 73.9439L80.58 73.3691L81.1547 75.529Z" fill="#00AEEF"/>
    <path opacity="0.5743" d="M83.1936 63.6105L85.3535 64.1913L84.7787 62.0254L83.1936 63.6105Z" fill="#00AEEF"/>
    <path opacity="0.643" d="M96.6972 59.9929L94.5312 59.4121L95.1121 61.578L96.6972 59.9929Z" fill="#00AEEF"/>
    <path opacity="0.14" d="M97.1449 49.6535L99.3108 50.2343L98.73 48.0684L97.1449 49.6535Z" fill="#00AEEF"/>
    <path opacity="0.9924" d="M110.655 46.0339L108.489 45.4531L109.069 47.619L110.655 46.0339Z" fill="#00AEEF"/>
    <path opacity="0.876" d="M111.102 35.7023L113.268 36.2831L112.687 34.1172L111.102 35.7023Z" fill="#00AEEF"/>
    <path opacity="0.3327" d="M123.021 33.6698L124.606 32.0847L122.44 31.5039L123.021 33.6698Z" fill="#00AEEF"/>
    <path opacity="0.5233" d="M125.053 21.7453L127.219 22.3261L126.639 20.1602L125.053 21.7453Z" fill="#00AEEF"/>
    <path opacity="0.9657" d="M136.978 19.7128L138.563 18.1277L136.397 17.5469L136.978 19.7128Z" fill="#00AEEF"/>
    <path opacity="0.7257" d="M139.011 7.79213L141.177 8.37293L140.596 6.20703L139.011 7.79213Z" fill="#00AEEF"/>
    <path opacity="0.2664" d="M150.929 5.75965L152.514 4.17455L150.349 3.59375L150.929 5.75965Z" fill="#00AEEF"/>
    <path opacity="0.2667" d="M234.317 33.3234L236.476 33.9042L235.902 31.7383L234.317 33.3234Z" fill="#00AEEF"/>
    <path opacity="0.5408" d="M232.284 45.2421L233.863 43.657L231.703 43.0762L232.284 45.2421Z" fill="#00AEEF"/>
    <path opacity="0.6766" d="M220.359 47.2765L222.525 47.8573L221.944 45.6914L220.359 47.2765Z" fill="#00AEEF"/>
    <path opacity="0.8012" d="M218.326 59.2011L219.911 57.616L217.746 57.0352L218.326 59.2011Z" fill="#00AEEF"/>
    <path opacity="0.8603" d="M206.408 61.2335L208.568 61.8143L207.987 59.6484L206.408 61.2335Z" fill="#00AEEF"/>
    <path opacity="0.6155" d="M204.369 73.1503L205.954 71.5652L203.794 70.9844L204.369 73.1503Z" fill="#00AEEF"/>
    <path opacity="0.3116" d="M194.616 75.7655L194.036 73.5996L192.45 75.1847L194.616 75.7655Z" fill="#00AEEF"/>
    <path opacity="0.6895" d="M190.418 87.1093L192.003 85.5242L189.837 84.9434L190.418 87.1093Z" fill="#00AEEF"/>
    <path opacity="0.6546" d="M180.659 89.7225L180.078 87.5566L178.493 89.1417L180.659 89.7225Z" fill="#00AEEF"/>
    <path opacity="0.1179" d="M176.46 101.06L178.045 99.4751L175.88 98.9004L176.46 101.06Z" fill="#00AEEF"/>
    <path opacity="0.1101" d="M166.708 103.674L166.127 101.514L164.542 103.099L166.708 103.674Z" fill="#00AEEF"/>
    <path opacity="0.6797" d="M229.204 14.2609L231.37 14.8417L230.789 12.6758L229.204 14.2609Z" fill="#00AEEF"/>
    <path opacity="0.9528" d="M227.171 26.1796L228.756 24.5945L226.591 24.0137L227.171 26.1796Z" fill="#00AEEF"/>
    <path opacity="0.6228" d="M215.253 28.2121L217.419 28.7929L216.838 26.627L215.253 28.2121Z" fill="#00AEEF"/>
    <path opacity="0.5965" d="M213.22 40.1366L214.799 38.5515L212.639 37.9707L213.22 40.1366Z" fill="#00AEEF"/>
    <path opacity="0.4773" d="M201.296 42.1691L203.462 42.7499L202.881 40.584L201.296 42.1691Z" fill="#00AEEF"/>
    <path opacity="0.8136" d="M199.263 54.0878L200.848 52.5027L198.682 51.9219L199.263 54.0878Z" fill="#00AEEF"/>
    <path opacity="0.4133" d="M187.344 56.1203L189.504 56.7011L188.923 54.5352L187.344 56.1203Z" fill="#00AEEF"/>
    <path opacity="0.7303" d="M185.305 68.0448L186.891 66.4597L184.731 65.8789L185.305 68.0448Z" fill="#00AEEF"/>
    <path opacity="0.2515" d="M175.553 70.6581L174.972 68.4922L173.387 70.0773L175.553 70.6581Z" fill="#00AEEF"/>
    <path opacity="0.295" d="M171.354 81.9958L172.939 80.4107L170.773 79.8359L171.354 81.9958Z" fill="#00AEEF"/>
    <path opacity="0.583" d="M161.595 84.611L161.015 82.4512L159.43 84.0363L161.595 84.611Z" fill="#00AEEF"/>
    <path opacity="0.6987" d="M157.397 95.953L158.982 94.3679L156.816 93.7871L157.397 95.953Z" fill="#00AEEF"/>
    <path opacity="0.8665" d="M147.644 98.5682L147.063 96.4023L145.478 97.9874L147.644 98.5682Z" fill="#00AEEF"/>
    <path opacity="0.9879" d="M223.65 5.53002L221.484 4.94922L222.065 7.11512L223.65 5.53002Z" fill="#00AEEF"/>
    <path opacity="0.3377" d="M211.726 7.5625L210.141 9.1476L212.307 9.7284L211.726 7.5625Z" fill="#00AEEF"/>
    <path opacity="0.2012" d="M208.108 21.0722L209.693 19.487L207.527 18.9062L208.108 21.0722Z" fill="#00AEEF"/>
    <path opacity="0.8433" d="M196.189 23.1046L198.349 23.6854L197.775 21.5195L196.189 23.1046Z" fill="#00AEEF"/>
    <path opacity="0.5041" d="M194.157 35.0231L195.742 33.438L193.576 32.8633L194.157 35.0231Z" fill="#00AEEF"/>
    <path opacity="0.2364" d="M182.232 37.0576L184.398 37.6384L183.817 35.4785L182.232 37.0576Z" fill="#00AEEF"/>
    <path opacity="0.2937" d="M180.199 48.9823L181.784 47.3972L179.619 46.8164L180.199 48.9823Z" fill="#00AEEF"/>
    <path opacity="0.9883" d="M168.281 51.0148L170.441 51.5956L169.866 49.4297L168.281 51.0148Z" fill="#00AEEF"/>
    <path opacity="0.1763" d="M166.242 62.9333L167.827 61.3542L165.667 60.7734L166.242 62.9333Z" fill="#00AEEF"/>
    <path opacity="0.6894" d="M156.489 65.5466L155.909 63.3867L154.323 64.9718L156.489 65.5466Z" fill="#00AEEF"/>
    <path opacity="0.9435" d="M153.876 75.3054L151.71 74.7246L152.291 76.8905L153.876 75.3054Z" fill="#00AEEF"/>
    <path opacity="0.8199" d="M142.532 79.5038L141.951 77.3379L140.366 78.923L142.532 79.5038Z" fill="#00AEEF"/>
    <path opacity="0.2578" d="M138.333 90.8475L139.918 89.2624L137.759 88.6816L138.333 90.8475Z" fill="#00AEEF"/>
    <path opacity="0.1598" d="M128.581 93.4628L128 91.2969L126.415 92.882L128.581 93.4628Z" fill="#00AEEF"/>
    <path opacity="0.564" d="M204.587 0.42455L202.421 -0.15625L203.002 2.00965L204.587 0.42455Z" fill="#00AEEF"/>
    <path opacity="0.8888" d="M192.662 2.45703L191.077 4.04213L193.243 4.62293L192.662 2.45703Z" fill="#00AEEF"/>
    <path opacity="0.5923" d="M189.044 15.9606L190.63 14.3755L188.464 13.8008L189.044 15.9606Z" fill="#00AEEF"/>
    <path opacity="0.1503" d="M177.126 17.9931L179.292 18.5739L178.711 16.4141L177.126 17.9931Z" fill="#00AEEF"/>
    <path opacity="0.2932" d="M175.093 29.9179L176.678 28.3328L174.512 27.752L175.093 29.9179Z" fill="#00AEEF"/>
    <path opacity="0.6821" d="M163.169 31.9523L165.334 32.5331L164.754 30.3672L163.169 31.9523Z" fill="#00AEEF"/>
    <path opacity="0.29" d="M161.136 43.8708L162.721 42.2917L160.555 41.7109L161.136 43.8708Z" fill="#00AEEF"/>
    <path opacity="0.4518" d="M149.217 45.9093L151.377 46.4841L150.802 44.3242L149.217 45.9093Z" fill="#00AEEF"/>
    <path opacity="0.7901" d="M148.763 56.241L146.604 55.6602L147.184 57.8261L148.763 56.241Z" fill="#00AEEF"/>
    <path opacity="0.271" d="M137.426 60.4413L136.845 58.2754L135.26 59.8605L137.426 60.4413Z" fill="#00AEEF"/>
    <path opacity="0.3656" d="M134.812 70.1999L132.646 69.6191L133.227 71.785L134.812 70.1999Z" fill="#00AEEF"/>
    <path opacity="0.1008" d="M123.468 74.3964L122.888 72.2305L121.309 73.8156L123.468 74.3964Z" fill="#00AEEF"/>
    <path opacity="0.1385" d="M119.27 85.7362L120.855 84.1511L118.689 83.5703L119.27 85.7362Z" fill="#00AEEF"/>
    <path opacity="0.5535" d="M109.517 88.3495L108.936 86.1836L107.351 87.7687L109.517 88.3495Z" fill="#00AEEF"/>
    <path opacity="0.4709" d="M169.981 10.8534L171.566 9.2683L169.4 8.6875L169.981 10.8534Z" fill="#00AEEF"/>
    <path opacity="0.9418" d="M158.062 12.8878L160.228 13.4686L159.647 11.3027L158.062 12.8878Z" fill="#00AEEF"/>
    <path opacity="0.7008" d="M156.03 24.8063L157.615 23.2273L155.449 22.6465L156.03 24.8063Z" fill="#00AEEF"/>
    <path opacity="0.9521" d="M144.105 26.8449L146.271 27.4196L145.69 25.2598L144.105 26.8449Z" fill="#00AEEF"/>
    <path opacity="0.1342" d="M142.072 38.7636L143.657 37.1785L141.491 36.5977L142.072 38.7636Z" fill="#00AEEF"/>
    <path opacity="0.2228" d="M130.154 40.796L132.314 41.3768L131.739 39.2109L130.154 40.796Z" fill="#00AEEF"/>
    <path opacity="0.6905" d="M129.7 51.1355L127.54 50.5547L128.115 52.7206L129.7 51.1355Z" fill="#00AEEF"/>
    <path opacity="0.1974" d="M118.362 55.3339L117.781 53.168L116.196 54.7531L118.362 55.3339Z" fill="#00AEEF"/>
    <path opacity="0.9772" d="M115.749 65.0867L113.583 64.5059L114.164 66.6718L115.749 65.0867Z" fill="#00AEEF"/>
    <path opacity="0.2857" d="M104.405 69.287L103.824 67.1211L102.245 68.7062L104.405 69.287Z" fill="#00AEEF"/>
    <path opacity="0.2803" d="M100.206 80.6307L101.791 79.0456L99.6313 78.4648L100.206 80.6307Z" fill="#00AEEF"/>
    <path opacity="0.4761" d="M90.4536 83.2421L89.8728 81.0762L88.2877 82.6613L90.4536 83.2421Z" fill="#00AEEF"/>
    <path d="M263.665 363.001H0V215.805L263.665 363.001Z" fill="url(#paint0_linear_120_925)"/>
    </g>
    <defs>
    <linearGradient id="paint0_linear_120_925" x1="38.0695" y1="406.418" x2="121.64" y2="302.122" gradientUnits="userSpaceOnUse">
    <stop stop-color="#2484C6"/>
    <stop offset="1" stop-color="#2484C6" stop-opacity="0"/>
    </linearGradient>
    <clipPath id="clip0_120_925">
    <rect width="726" height="363" fill="white"/>
    </clipPath>
    </defs>
    </svg>
    